ISO-10303-21;
HEADER;
FILE_DESCRIPTION(('FreeCAD Model'),'2;1');
FILE_NAME('Open CASCADE Shape Model','2025-10-15T20:19:35',(''),(''),
  'Open CASCADE STEP processor 7.8','FreeCAD','Unknown');
FILE_SCHEMA(('AUTOMOTIVE_DESIGN { 1 0 10303 214 1 1 1 1 }'));
ENDSEC;
DATA;
#1 = APPLICATION_PROTOCOL_DEFINITION('international standard',
  'automotive_design',2000,#2);
#2 = APPLICATION_CONTEXT(
  'core data for automotive mechanical design processes');
#3 = SHAPE_DEFINITION_REPRESENTATION(#4,#10);
#4 = PRODUCT_DEFINITION_SHAPE('','',#5);
#5 = PRODUCT_DEFINITION('design','',#6,#9);
#6 = PRODUCT_DEFINITION_FORMATION('','',#7);
#7 = PRODUCT('Body','Body','',(#8));
#8 = PRODUCT_CONTEXT('',#2,'mechanical');
#9 = PRODUCT_DEFINITION_CONTEXT('part definition',#2,'design');
#10 = ADVANCED_BREP_SHAPE_REPRESENTATION('',(#11,#15),#1576);
#11 = AXIS2_PLACEMENT_3D('',#12,#13,#14);
#12 = CARTESIAN_POINT('',(0.,0.,0.));
#13 = DIRECTION('',(0.,0.,1.));
#14 = DIRECTION('',(1.,0.,-0.));
#15 = MANIFOLD_SOLID_BREP('',#16);
#16 = CLOSED_SHELL('',(#17,#297,#401,#425,#522,#542,#559,#579,#618,#699,
    #741,#765,#800,#928,#952,#987,#1004,#1028,#1075,#1092,#1126,#1171,
    #1195,#1230,#1247,#1264,#1284,#1301,#1318,#1330,#1342,#1354,#1393,
    #1432,#1444,#1461,#1486,#1503,#1530,#1547,#1564));
#17 = ADVANCED_FACE('',(#18,#86),#292,.T.);
#18 = FACE_BOUND('',#19,.F.);
#19 = EDGE_LOOP('',(#20,#30,#37,#38,#46,#54,#61,#62,#71,#79));
#20 = ORIENTED_EDGE('',*,*,#21,.F.);
#21 = EDGE_CURVE('',#22,#24,#26,.T.);
#22 = VERTEX_POINT('',#23);
#23 = CARTESIAN_POINT('',(20.5,19.,-4.218847493576E-15));
#24 = VERTEX_POINT('',#25);
#25 = CARTESIAN_POINT('',(20.5,16.,-3.552713678801E-15));
#26 = LINE('',#27,#28);
#27 = CARTESIAN_POINT('',(20.5,19.,-4.218847493576E-15));
#28 = VECTOR('',#29,1.);
#29 = DIRECTION('',(0.,-1.,2.22044604925E-16));
#30 = ORIENTED_EDGE('',*,*,#31,.F.);
#31 = EDGE_CURVE('',#22,#22,#32,.T.);
#32 = CIRCLE('',#33,20.5);
#33 = AXIS2_PLACEMENT_3D('',#34,#35,#36);
#34 = CARTESIAN_POINT('',(0.,19.,-3.552713678801E-15));
#35 = DIRECTION('',(0.,-1.,2.22044604925E-16));
#36 = DIRECTION('',(1.,0.,0.));
#37 = ORIENTED_EDGE('',*,*,#21,.T.);
#38 = ORIENTED_EDGE('',*,*,#39,.T.);
#39 = EDGE_CURVE('',#24,#40,#42,.T.);
#40 = VERTEX_POINT('',#41);
#41 = CARTESIAN_POINT('',(20.5,-16.,3.552713678801E-15));
#42 = LINE('',#43,#44);
#43 = CARTESIAN_POINT('',(20.5,19.,-4.218847493576E-15));
#44 = VECTOR('',#45,1.);
#45 = DIRECTION('',(0.,-1.,2.22044604925E-16));
#46 = ORIENTED_EDGE('',*,*,#47,.T.);
#47 = EDGE_CURVE('',#40,#48,#50,.T.);
#48 = VERTEX_POINT('',#49);
#49 = CARTESIAN_POINT('',(20.5,-19.,4.218847493576E-15));
#50 = LINE('',#51,#52);
#51 = CARTESIAN_POINT('',(20.5,19.,-4.218847493576E-15));
#52 = VECTOR('',#53,1.);
#53 = DIRECTION('',(0.,-1.,2.22044604925E-16));
#54 = ORIENTED_EDGE('',*,*,#55,.T.);
#55 = EDGE_CURVE('',#48,#48,#56,.T.);
#56 = CIRCLE('',#57,20.5);
#57 = AXIS2_PLACEMENT_3D('',#58,#59,#60);
#58 = CARTESIAN_POINT('',(0.,-19.,3.552713678801E-15));
#59 = DIRECTION('',(0.,-1.,2.22044604925E-16));
#60 = DIRECTION('',(1.,0.,0.));
#61 = ORIENTED_EDGE('',*,*,#47,.F.);
#62 = ORIENTED_EDGE('',*,*,#63,.T.);
#63 = EDGE_CURVE('',#40,#64,#66,.T.);
#64 = VERTEX_POINT('',#65);
#65 = CARTESIAN_POINT('',(-12.,-16.,-16.62077013859));
#66 = CIRCLE('',#67,20.5);
#67 = AXIS2_PLACEMENT_3D('',#68,#69,#70);
#68 = CARTESIAN_POINT('',(0.,-16.,3.552713678801E-15));
#69 = DIRECTION('',(0.,1.,-2.22044604925E-16));
#70 = DIRECTION('',(1.,0.,0.));
#71 = ORIENTED_EDGE('',*,*,#72,.F.);
#72 = EDGE_CURVE('',#73,#64,#75,.T.);
#73 = VERTEX_POINT('',#74);
#74 = CARTESIAN_POINT('',(-12.,16.,-16.62077013859));
#75 = LINE('',#76,#77);
#76 = CARTESIAN_POINT('',(-12.,16.,-16.62077013859));
#77 = VECTOR('',#78,1.);
#78 = DIRECTION('',(0.,-1.,2.22044604925E-16));
#79 = ORIENTED_EDGE('',*,*,#80,.F.);
#80 = EDGE_CURVE('',#24,#73,#81,.T.);
#81 = CIRCLE('',#82,20.5);
#82 = AXIS2_PLACEMENT_3D('',#83,#84,#85);
#83 = CARTESIAN_POINT('',(0.,16.,-3.552713678801E-15));
#84 = DIRECTION('',(0.,1.,-2.22044604925E-16));
#85 = DIRECTION('',(1.,0.,0.));
#86 = FACE_BOUND('',#87,.F.);
#87 = EDGE_LOOP('',(#88,#98,#107,#116,#125,#133,#142,#151,#160,#168,#231
    ));
#88 = ORIENTED_EDGE('',*,*,#89,.F.);
#89 = EDGE_CURVE('',#90,#92,#94,.T.);
#90 = VERTEX_POINT('',#91);
#91 = CARTESIAN_POINT('',(0.,10.,20.5));
#92 = VERTEX_POINT('',#93);
#93 = CARTESIAN_POINT('',(0.,3.,20.5));
#94 = LINE('',#95,#96);
#95 = CARTESIAN_POINT('',(0.,10.,20.5));
#96 = VECTOR('',#97,1.);
#97 = DIRECTION('',(0.,-1.,2.22044604925E-16));
#98 = ORIENTED_EDGE('',*,*,#99,.F.);
#99 = EDGE_CURVE('',#100,#90,#102,.T.);
#100 = VERTEX_POINT('',#101);
#101 = CARTESIAN_POINT('',(-19.85127991777,10.,5.116315630054));
#102 = CIRCLE('',#103,20.5);
#103 = AXIS2_PLACEMENT_3D('',#104,#105,#106);
#104 = CARTESIAN_POINT('',(0.,10.,-2.22044604925E-15));
#105 = DIRECTION('',(0.,1.,-2.22044604925E-16));
#106 = DIRECTION('',(1.,0.,0.));
#107 = ORIENTED_EDGE('',*,*,#108,.F.);
#108 = EDGE_CURVE('',#109,#100,#111,.T.);
#109 = VERTEX_POINT('',#110);
#110 = CARTESIAN_POINT('',(-20.5,10.,-2.22044604925E-15));
#111 = CIRCLE('',#112,20.5);
#112 = AXIS2_PLACEMENT_3D('',#113,#114,#115);
#113 = CARTESIAN_POINT('',(0.,10.,-2.22044604925E-15));
#114 = DIRECTION('',(0.,1.,-2.22044604925E-16));
#115 = DIRECTION('',(1.,0.,0.));
#116 = ORIENTED_EDGE('',*,*,#117,.F.);
#117 = EDGE_CURVE('',#118,#109,#120,.T.);
#118 = VERTEX_POINT('',#119);
#119 = CARTESIAN_POINT('',(-14.52068380536,10.,-14.47065105047));
#120 = CIRCLE('',#121,20.5);
#121 = AXIS2_PLACEMENT_3D('',#122,#123,#124);
#122 = CARTESIAN_POINT('',(0.,10.,-2.22044604925E-15));
#123 = DIRECTION('',(0.,1.,-2.22044604925E-16));
#124 = DIRECTION('',(1.,0.,0.));
#125 = ORIENTED_EDGE('',*,*,#126,.T.);
#126 = EDGE_CURVE('',#118,#127,#129,.T.);
#127 = VERTEX_POINT('',#128);
#128 = CARTESIAN_POINT('',(-14.52068380536,-10.,-14.47065105047));
#129 = LINE('',#130,#131);
#130 = CARTESIAN_POINT('',(-14.52068380536,10.,-14.47065105047));
#131 = VECTOR('',#132,1.);
#132 = DIRECTION('',(0.,-1.,2.22044604925E-16));
#133 = ORIENTED_EDGE('',*,*,#134,.T.);
#134 = EDGE_CURVE('',#127,#135,#137,.T.);
#135 = VERTEX_POINT('',#136);
#136 = CARTESIAN_POINT('',(-20.5,-10.,2.22044604925E-15));
#137 = CIRCLE('',#138,20.5);
#138 = AXIS2_PLACEMENT_3D('',#139,#140,#141);
#139 = CARTESIAN_POINT('',(0.,-10.,2.22044604925E-15));
#140 = DIRECTION('',(0.,1.,-2.22044604925E-16));
#141 = DIRECTION('',(1.,0.,0.));
#142 = ORIENTED_EDGE('',*,*,#143,.T.);
#143 = EDGE_CURVE('',#135,#144,#146,.T.);
#144 = VERTEX_POINT('',#145);
#145 = CARTESIAN_POINT('',(-19.85127991777,-10.,5.116315630054));
#146 = CIRCLE('',#147,20.5);
#147 = AXIS2_PLACEMENT_3D('',#148,#149,#150);
#148 = CARTESIAN_POINT('',(0.,-10.,2.22044604925E-15));
#149 = DIRECTION('',(0.,1.,-2.22044604925E-16));
#150 = DIRECTION('',(1.,0.,0.));
#151 = ORIENTED_EDGE('',*,*,#152,.T.);
#152 = EDGE_CURVE('',#144,#153,#155,.T.);
#153 = VERTEX_POINT('',#154);
#154 = CARTESIAN_POINT('',(0.,-10.,20.5));
#155 = CIRCLE('',#156,20.5);
#156 = AXIS2_PLACEMENT_3D('',#157,#158,#159);
#157 = CARTESIAN_POINT('',(0.,-10.,2.22044604925E-15));
#158 = DIRECTION('',(0.,1.,-2.22044604925E-16));
#159 = DIRECTION('',(1.,0.,0.));
#160 = ORIENTED_EDGE('',*,*,#161,.F.);
#161 = EDGE_CURVE('',#162,#153,#164,.T.);
#162 = VERTEX_POINT('',#163);
#163 = CARTESIAN_POINT('',(0.,-3.,20.5));
#164 = LINE('',#165,#166);
#165 = CARTESIAN_POINT('',(0.,10.,20.5));
#166 = VECTOR('',#167,1.);
#167 = DIRECTION('',(0.,-1.,2.22044604925E-16));
#168 = ORIENTED_EDGE('',*,*,#169,.T.);
#169 = EDGE_CURVE('',#162,#170,#172,.T.);
#170 = VERTEX_POINT('',#171);
#171 = CARTESIAN_POINT('',(3.,4.733165431326E-30,20.279299790673));
#172 = B_SPLINE_CURVE_WITH_KNOTS('',8,(#173,#174,#175,#176,#177,#178,
    #179,#180,#181,#182,#183,#184,#185,#186,#187,#188,#189,#190,#191,
    #192,#193,#194,#195,#196,#197,#198,#199,#200,#201,#202,#203,#204,
    #205,#206,#207,#208,#209,#210,#211,#212,#213,#214,#215,#216,#217,
    #218,#219,#220,#221,#222,#223,#224,#225,#226,#227,#228,#229,#230),
  .UNSPECIFIED.,.T.,.F.,(9,7,7,7,7,7,7,7,9),(0.,0.121266176169,
    0.229921475766,0.322764311776,0.43489868717,0.559247343216,
    0.672971506109,0.815661618913,1.),.UNSPECIFIED.);
#173 = CARTESIAN_POINT('',(3.,8.261614080244E-16,20.279299790673));
#174 = CARTESIAN_POINT('',(3.,0.246903975596,20.279299790673));
#175 = CARTESIAN_POINT('',(2.976776952636,0.493617914625,20.282735258926
    ));
#176 = CARTESIAN_POINT('',(2.930390949783,0.73892264578,20.289597380024)
  );
#177 = CARTESIAN_POINT('',(2.860546425548,0.981515205926,20.299777506037
    ));
#178 = CARTESIAN_POINT('',(2.7666472279,1.219883083626,20.313061639223)
  );
#179 = CARTESIAN_POINT('',(2.64785310819,1.452155392895,20.329096172128)
  );
#180 = CARTESIAN_POINT('',(2.503148928199,1.675915693381,20.347336840093
    ));
#181 = CARTESIAN_POINT('',(2.177583648174,2.07795533195,20.384604748694)
  );
#182 = CARTESIAN_POINT('',(2.000254728442,2.260758312543,20.403558140928
    ));
#183 = CARTESIAN_POINT('',(1.799076348532,2.432072880524,20.423182125724
    ));
#184 = CARTESIAN_POINT('',(1.574349835289,2.587560686511,20.442561386682
    ));
#185 = CARTESIAN_POINT('',(1.327025921615,2.72285425648,20.46058324503)
  );
#186 = CARTESIAN_POINT('',(1.058711631273,2.833548928344,20.476027503494
    ));
#187 = CARTESIAN_POINT('',(0.771736438519,2.915164333471,20.487702081394
    ));
#188 = CARTESIAN_POINT('',(0.210883036827,3.003994785602,20.500544979183
    ));
#189 = CARTESIAN_POINT('',(-5.340540196632E-02,3.019450511411,
    20.502870746102));
#190 = CARTESIAN_POINT('',(-0.318826131767,3.008041286785,
    20.501205860492));
#191 = CARTESIAN_POINT('',(-0.580443236132,2.969823323943,
    20.495511587875));
#192 = CARTESIAN_POINT('',(-0.833433051547,2.906243041922,
    20.486192260197));
#193 = CARTESIAN_POINT('',(-1.073377361638,2.820104227933,
    20.474021476649));
#194 = CARTESIAN_POINT('',(-1.296523818008,2.7155532398,20.459976818331)
  );
#195 = CARTESIAN_POINT('',(-1.745755898418,2.456188977247,20.4270178294)
  );
#196 = CARTESIAN_POINT('',(-1.966738802126,2.293181904435,
    20.407410555276));
#197 = CARTESIAN_POINT('',(-2.163097100644,2.113725131482,
    20.387401698949));
#198 = CARTESIAN_POINT('',(-2.335428526939,1.921503277206,
    20.367957856132));
#199 = CARTESIAN_POINT('',(-2.484542458653,1.719440580387,
    20.349812339234));
#200 = CARTESIAN_POINT('',(-2.611296435547,1.50986166644,20.33349803741)
  );
#201 = CARTESIAN_POINT('',(-2.716482789014,1.294604720787,
    20.319398509451));
#202 = CARTESIAN_POINT('',(-2.894177658965,0.831693758226,
    20.294891773321));
#203 = CARTESIAN_POINT('',(-2.961935669762,0.582916382162,
    20.285046305588));
#204 = CARTESIAN_POINT('',(-3.004811833283,0.330755523539,
    20.278611946451));
#205 = CARTESIAN_POINT('',(-3.023307356466,7.683850784796E-02,
    20.275793899734));
#206 = CARTESIAN_POINT('',(-3.017630678772,-0.177392028658,
    20.276669687056));
#207 = CARTESIAN_POINT('',(-2.987695154253,-0.430522737935,
    20.281204389501));
#208 = CARTESIAN_POINT('',(-2.933110863322,-0.681016915743,
    20.289242901444));
#209 = CARTESIAN_POINT('',(-2.780058512916,-1.152063614913,
    20.310753936643));
#210 = CARTESIAN_POINT('',(-2.685747429654,-1.373318106086,
    20.32370212679));
#211 = CARTESIAN_POINT('',(-2.569671097544,-1.589507687855,
    20.339092070938));
#212 = CARTESIAN_POINT('',(-2.431052562955,-1.798947078266,
    20.356582655004));
#213 = CARTESIAN_POINT('',(-2.268990355116,-1.999479410656,
    20.375692448542));
#214 = CARTESIAN_POINT('',(-2.082568607351,-2.188351388093,
    20.395744768584));
#215 = CARTESIAN_POINT('',(-1.871013205583,-2.362039695829,
    20.415824341373));
#216 = CARTESIAN_POINT('',(-1.336431782043,-2.709200931458,
    20.458568214661));
#217 = CARTESIAN_POINT('',(-0.9869824321,-2.878986672923,20.48152838228)
  );
#218 = CARTESIAN_POINT('',(-0.595875466365,-3.001266492611,
    20.499815544373));
#219 = CARTESIAN_POINT('',(-0.178932815974,-3.060900879871,
    20.509396196861));
#220 = CARTESIAN_POINT('',(0.244131579343,-3.051426251802,
    20.507681109019));
#221 = CARTESIAN_POINT('',(0.65314008808,-2.97488342708,20.495724446813)
  );
#222 = CARTESIAN_POINT('',(1.030127651458,-2.842102458257,20.47680262108
    ));
#223 = CARTESIAN_POINT('',(1.790673645901,-2.454584918577,
    20.426161857844));
#224 = CARTESIAN_POINT('',(2.150590377966,-2.172220888362,
    20.391882040775));
#225 = CARTESIAN_POINT('',(2.441930436453,-1.849042352702,
    20.357594316633));
#226 = CARTESIAN_POINT('',(2.668727439514,-1.499682377831,
    20.327457990247));
#227 = CARTESIAN_POINT('',(2.835168725098,-1.134334259976,
    20.303680615632));
#228 = CARTESIAN_POINT('',(2.944897873823,-0.759692528858,
    20.287451971175));
#229 = CARTESIAN_POINT('',(3.,-0.380322910206,20.279299790673));
#230 = CARTESIAN_POINT('',(3.,8.261614080244E-16,20.279299790673));
#231 = ORIENTED_EDGE('',*,*,#232,.T.);
#232 = EDGE_CURVE('',#170,#92,#233,.T.);
#233 = B_SPLINE_CURVE_WITH_KNOTS('',8,(#234,#235,#236,#237,#238,#239,
    #240,#241,#242,#243,#244,#245,#246,#247,#248,#249,#250,#251,#252,
    #253,#254,#255,#256,#257,#258,#259,#260,#261,#262,#263,#264,#265,
    #266,#267,#268,#269,#270,#271,#272,#273,#274,#275,#276,#277,#278,
    #279,#280,#281,#282,#283,#284,#285,#286,#287,#288,#289,#290,#291),
  .UNSPECIFIED.,.T.,.F.,(9,7,7,7,7,7,7,7,9),(0.,0.121266176169,
    0.229921475766,0.322764311776,0.43489868717,0.559247343216,
    0.672971506109,0.815661618913,1.),.UNSPECIFIED.);
#234 = CARTESIAN_POINT('',(3.,8.261614080244E-16,20.279299790673));
#235 = CARTESIAN_POINT('',(3.,0.246903975596,20.279299790673));
#236 = CARTESIAN_POINT('',(2.976776952636,0.493617914625,20.282735258926
    ));
#237 = CARTESIAN_POINT('',(2.930390949783,0.73892264578,20.289597380024)
  );
#238 = CARTESIAN_POINT('',(2.860546425548,0.981515205926,20.299777506037
    ));
#239 = CARTESIAN_POINT('',(2.7666472279,1.219883083626,20.313061639223)
  );
#240 = CARTESIAN_POINT('',(2.64785310819,1.452155392895,20.329096172128)
  );
#241 = CARTESIAN_POINT('',(2.503148928199,1.675915693381,20.347336840093
    ));
#242 = CARTESIAN_POINT('',(2.177583648174,2.07795533195,20.384604748694)
  );
#243 = CARTESIAN_POINT('',(2.000254728442,2.260758312543,20.403558140928
    ));
#244 = CARTESIAN_POINT('',(1.799076348532,2.432072880524,20.423182125724
    ));
#245 = CARTESIAN_POINT('',(1.574349835289,2.587560686511,20.442561386682
    ));
#246 = CARTESIAN_POINT('',(1.327025921615,2.72285425648,20.46058324503)
  );
#247 = CARTESIAN_POINT('',(1.058711631273,2.833548928344,20.476027503494
    ));
#248 = CARTESIAN_POINT('',(0.771736438519,2.915164333471,20.487702081394
    ));
#249 = CARTESIAN_POINT('',(0.210883036827,3.003994785602,20.500544979183
    ));
#250 = CARTESIAN_POINT('',(-5.340540196632E-02,3.019450511411,
    20.502870746102));
#251 = CARTESIAN_POINT('',(-0.318826131767,3.008041286785,
    20.501205860492));
#252 = CARTESIAN_POINT('',(-0.580443236132,2.969823323943,
    20.495511587875));
#253 = CARTESIAN_POINT('',(-0.833433051547,2.906243041922,
    20.486192260197));
#254 = CARTESIAN_POINT('',(-1.073377361638,2.820104227933,
    20.474021476649));
#255 = CARTESIAN_POINT('',(-1.296523818008,2.7155532398,20.459976818331)
  );
#256 = CARTESIAN_POINT('',(-1.745755898418,2.456188977247,20.4270178294)
  );
#257 = CARTESIAN_POINT('',(-1.966738802126,2.293181904435,
    20.407410555276));
#258 = CARTESIAN_POINT('',(-2.163097100644,2.113725131482,
    20.387401698949));
#259 = CARTESIAN_POINT('',(-2.335428526939,1.921503277206,
    20.367957856132));
#260 = CARTESIAN_POINT('',(-2.484542458653,1.719440580387,
    20.349812339234));
#261 = CARTESIAN_POINT('',(-2.611296435547,1.50986166644,20.33349803741)
  );
#262 = CARTESIAN_POINT('',(-2.716482789014,1.294604720787,
    20.319398509451));
#263 = CARTESIAN_POINT('',(-2.894177658965,0.831693758226,
    20.294891773321));
#264 = CARTESIAN_POINT('',(-2.961935669762,0.582916382162,
    20.285046305588));
#265 = CARTESIAN_POINT('',(-3.004811833283,0.330755523539,
    20.278611946451));
#266 = CARTESIAN_POINT('',(-3.023307356466,7.683850784796E-02,
    20.275793899734));
#267 = CARTESIAN_POINT('',(-3.017630678772,-0.177392028658,
    20.276669687056));
#268 = CARTESIAN_POINT('',(-2.987695154253,-0.430522737935,
    20.281204389501));
#269 = CARTESIAN_POINT('',(-2.933110863322,-0.681016915743,
    20.289242901444));
#270 = CARTESIAN_POINT('',(-2.780058512916,-1.152063614913,
    20.310753936643));
#271 = CARTESIAN_POINT('',(-2.685747429654,-1.373318106086,
    20.32370212679));
#272 = CARTESIAN_POINT('',(-2.569671097544,-1.589507687855,
    20.339092070938));
#273 = CARTESIAN_POINT('',(-2.431052562955,-1.798947078266,
    20.356582655004));
#274 = CARTESIAN_POINT('',(-2.268990355116,-1.999479410656,
    20.375692448542));
#275 = CARTESIAN_POINT('',(-2.082568607351,-2.188351388093,
    20.395744768584));
#276 = CARTESIAN_POINT('',(-1.871013205583,-2.362039695829,
    20.415824341373));
#277 = CARTESIAN_POINT('',(-1.336431782043,-2.709200931458,
    20.458568214661));
#278 = CARTESIAN_POINT('',(-0.9869824321,-2.878986672923,20.48152838228)
  );
#279 = CARTESIAN_POINT('',(-0.595875466365,-3.001266492611,
    20.499815544373));
#280 = CARTESIAN_POINT('',(-0.178932815974,-3.060900879871,
    20.509396196861));
#281 = CARTESIAN_POINT('',(0.244131579343,-3.051426251802,
    20.507681109019));
#282 = CARTESIAN_POINT('',(0.65314008808,-2.97488342708,20.495724446813)
  );
#283 = CARTESIAN_POINT('',(1.030127651458,-2.842102458257,20.47680262108
    ));
#284 = CARTESIAN_POINT('',(1.790673645901,-2.454584918577,
    20.426161857844));
#285 = CARTESIAN_POINT('',(2.150590377966,-2.172220888362,
    20.391882040775));
#286 = CARTESIAN_POINT('',(2.441930436453,-1.849042352702,
    20.357594316633));
#287 = CARTESIAN_POINT('',(2.668727439514,-1.499682377831,
    20.327457990247));
#288 = CARTESIAN_POINT('',(2.835168725098,-1.134334259976,
    20.303680615632));
#289 = CARTESIAN_POINT('',(2.944897873823,-0.759692528858,
    20.287451971175));
#290 = CARTESIAN_POINT('',(3.,-0.380322910206,20.279299790673));
#291 = CARTESIAN_POINT('',(3.,8.261614080244E-16,20.279299790673));
#292 = CYLINDRICAL_SURFACE('',#293,20.5);
#293 = AXIS2_PLACEMENT_3D('',#294,#295,#296);
#294 = CARTESIAN_POINT('',(0.,19.,-4.218847493576E-15));
#295 = DIRECTION('',(0.,1.,-2.22044604925E-16));
#296 = DIRECTION('',(1.,0.,0.));
#297 = ADVANCED_FACE('',(#298),#396,.T.);
#298 = FACE_BOUND('',#299,.T.);
#299 = EDGE_LOOP('',(#300,#308,#309,#317,#326,#334,#342,#350,#358,#366,
    #374,#382,#390));
#300 = ORIENTED_EDGE('',*,*,#301,.F.);
#301 = EDGE_CURVE('',#73,#302,#304,.T.);
#302 = VERTEX_POINT('',#303);
#303 = CARTESIAN_POINT('',(-12.,16.,-44.));
#304 = LINE('',#305,#306);
#305 = CARTESIAN_POINT('',(-12.,16.,-16.62077013859));
#306 = VECTOR('',#307,1.);
#307 = DIRECTION('',(0.,-2.22044604925E-16,-1.));
#308 = ORIENTED_EDGE('',*,*,#80,.F.);
#309 = ORIENTED_EDGE('',*,*,#310,.T.);
#310 = EDGE_CURVE('',#24,#311,#313,.T.);
#311 = VERTEX_POINT('',#312);
#312 = CARTESIAN_POINT('',(20.5,16.,-9.));
#313 = LINE('',#314,#315);
#314 = CARTESIAN_POINT('',(20.5,16.,-3.552713678801E-15));
#315 = VECTOR('',#316,1.);
#316 = DIRECTION('',(0.,-2.22044604925E-16,-1.));
#317 = ORIENTED_EDGE('',*,*,#318,.T.);
#318 = EDGE_CURVE('',#311,#319,#321,.T.);
#319 = VERTEX_POINT('',#320);
#320 = CARTESIAN_POINT('',(26.5,16.,-15.));
#321 = CIRCLE('',#322,6.);
#322 = AXIS2_PLACEMENT_3D('',#323,#324,#325);
#323 = CARTESIAN_POINT('',(26.5,16.,-9.));
#324 = DIRECTION('',(0.,-1.,2.22044604925E-16));
#325 = DIRECTION('',(1.,0.,0.));
#326 = ORIENTED_EDGE('',*,*,#327,.F.);
#327 = EDGE_CURVE('',#328,#319,#330,.T.);
#328 = VERTEX_POINT('',#329);
#329 = CARTESIAN_POINT('',(57.030344885397,16.,-15.));
#330 = LINE('',#331,#332);
#331 = CARTESIAN_POINT('',(57.030344885397,16.,-15.));
#332 = VECTOR('',#333,1.);
#333 = DIRECTION('',(-1.,0.,0.));
#334 = ORIENTED_EDGE('',*,*,#335,.F.);
#335 = EDGE_CURVE('',#336,#328,#338,.T.);
#336 = VERTEX_POINT('',#337);
#337 = CARTESIAN_POINT('',(68.,16.,4.));
#338 = LINE('',#339,#340);
#339 = CARTESIAN_POINT('',(68.,16.,4.));
#340 = VECTOR('',#341,1.);
#341 = DIRECTION('',(-0.5,-1.922962686384E-16,-0.866025403784));
#342 = ORIENTED_EDGE('',*,*,#343,.F.);
#343 = EDGE_CURVE('',#344,#336,#346,.T.);
#344 = VERTEX_POINT('',#345);
#345 = CARTESIAN_POINT('',(80.,16.,4.));
#346 = LINE('',#347,#348);
#347 = CARTESIAN_POINT('',(80.,16.,4.));
#348 = VECTOR('',#349,1.);
#349 = DIRECTION('',(-1.,0.,0.));
#350 = ORIENTED_EDGE('',*,*,#351,.F.);
#351 = EDGE_CURVE('',#352,#344,#354,.T.);
#352 = VERTEX_POINT('',#353);
#353 = CARTESIAN_POINT('',(80.,16.,-44.));
#354 = LINE('',#355,#356);
#355 = CARTESIAN_POINT('',(80.,16.,-44.));
#356 = VECTOR('',#357,1.);
#357 = DIRECTION('',(0.,2.22044604925E-16,1.));
#358 = ORIENTED_EDGE('',*,*,#359,.F.);
#359 = EDGE_CURVE('',#360,#352,#362,.T.);
#360 = VERTEX_POINT('',#361);
#361 = CARTESIAN_POINT('',(66.,16.,-44.));
#362 = LINE('',#363,#364);
#363 = CARTESIAN_POINT('',(-12.,16.,-44.));
#364 = VECTOR('',#365,1.);
#365 = DIRECTION('',(1.,0.,0.));
#366 = ORIENTED_EDGE('',*,*,#367,.T.);
#367 = EDGE_CURVE('',#360,#368,#370,.T.);
#368 = VERTEX_POINT('',#369);
#369 = CARTESIAN_POINT('',(66.,16.,-28.));
#370 = LINE('',#371,#372);
#371 = CARTESIAN_POINT('',(66.,16.,-44.));
#372 = VECTOR('',#373,1.);
#373 = DIRECTION('',(0.,2.958228394579E-31,1.));
#374 = ORIENTED_EDGE('',*,*,#375,.T.);
#375 = EDGE_CURVE('',#368,#376,#378,.T.);
#376 = VERTEX_POINT('',#377);
#377 = CARTESIAN_POINT('',(26.,16.,-28.));
#378 = LINE('',#379,#380);
#379 = CARTESIAN_POINT('',(66.,16.,-28.));
#380 = VECTOR('',#381,1.);
#381 = DIRECTION('',(-1.,-0.,0.));
#382 = ORIENTED_EDGE('',*,*,#383,.F.);
#383 = EDGE_CURVE('',#384,#376,#386,.T.);
#384 = VERTEX_POINT('',#385);
#385 = CARTESIAN_POINT('',(26.,16.,-44.));
#386 = LINE('',#387,#388);
#387 = CARTESIAN_POINT('',(26.,16.,-44.));
#388 = VECTOR('',#389,1.);
#389 = DIRECTION('',(0.,2.958228394579E-31,1.));
#390 = ORIENTED_EDGE('',*,*,#391,.F.);
#391 = EDGE_CURVE('',#302,#384,#392,.T.);
#392 = LINE('',#393,#394);
#393 = CARTESIAN_POINT('',(-12.,16.,-44.));
#394 = VECTOR('',#395,1.);
#395 = DIRECTION('',(1.,0.,0.));
#396 = PLANE('',#397);
#397 = AXIS2_PLACEMENT_3D('',#398,#399,#400);
#398 = CARTESIAN_POINT('',(37.415430225458,16.,-23.82875597869));
#399 = DIRECTION('',(0.,1.,-5.423418723394E-31));
#400 = DIRECTION('',(0.,5.423418723394E-31,1.));
#401 = ADVANCED_FACE('',(#402),#420,.F.);
#402 = FACE_BOUND('',#403,.F.);
#403 = EDGE_LOOP('',(#404,#405,#413,#419));
#404 = ORIENTED_EDGE('',*,*,#72,.T.);
#405 = ORIENTED_EDGE('',*,*,#406,.T.);
#406 = EDGE_CURVE('',#64,#407,#409,.T.);
#407 = VERTEX_POINT('',#408);
#408 = CARTESIAN_POINT('',(-12.,-16.,-44.));
#409 = LINE('',#410,#411);
#410 = CARTESIAN_POINT('',(-12.,-16.,-16.62077013859));
#411 = VECTOR('',#412,1.);
#412 = DIRECTION('',(0.,-2.22044604925E-16,-1.));
#413 = ORIENTED_EDGE('',*,*,#414,.F.);
#414 = EDGE_CURVE('',#302,#407,#415,.T.);
#415 = LINE('',#416,#417);
#416 = CARTESIAN_POINT('',(-12.,16.,-44.));
#417 = VECTOR('',#418,1.);
#418 = DIRECTION('',(0.,-1.,2.22044604925E-16));
#419 = ORIENTED_EDGE('',*,*,#301,.F.);
#420 = PLANE('',#421);
#421 = AXIS2_PLACEMENT_3D('',#422,#423,#424);
#422 = CARTESIAN_POINT('',(-12.,16.,-16.62077013859));
#423 = DIRECTION('',(1.,0.,0.));
#424 = DIRECTION('',(0.,-2.22044604925E-16,-1.));
#425 = ADVANCED_FACE('',(#426),#517,.F.);
#426 = FACE_BOUND('',#427,.F.);
#427 = EDGE_LOOP('',(#428,#429,#430,#438,#447,#455,#463,#471,#479,#487,
    #495,#503,#511));
#428 = ORIENTED_EDGE('',*,*,#406,.F.);
#429 = ORIENTED_EDGE('',*,*,#63,.F.);
#430 = ORIENTED_EDGE('',*,*,#431,.T.);
#431 = EDGE_CURVE('',#40,#432,#434,.T.);
#432 = VERTEX_POINT('',#433);
#433 = CARTESIAN_POINT('',(20.5,-16.,-9.));
#434 = LINE('',#435,#436);
#435 = CARTESIAN_POINT('',(20.5,-16.,3.552713678801E-15));
#436 = VECTOR('',#437,1.);
#437 = DIRECTION('',(0.,-2.22044604925E-16,-1.));
#438 = ORIENTED_EDGE('',*,*,#439,.T.);
#439 = EDGE_CURVE('',#432,#440,#442,.T.);
#440 = VERTEX_POINT('',#441);
#441 = CARTESIAN_POINT('',(26.5,-16.,-15.));
#442 = CIRCLE('',#443,6.);
#443 = AXIS2_PLACEMENT_3D('',#444,#445,#446);
#444 = CARTESIAN_POINT('',(26.5,-16.,-9.));
#445 = DIRECTION('',(0.,-1.,2.22044604925E-16));
#446 = DIRECTION('',(1.,0.,0.));
#447 = ORIENTED_EDGE('',*,*,#448,.F.);
#448 = EDGE_CURVE('',#449,#440,#451,.T.);
#449 = VERTEX_POINT('',#450);
#450 = CARTESIAN_POINT('',(57.030344885397,-16.,-15.));
#451 = LINE('',#452,#453);
#452 = CARTESIAN_POINT('',(57.030344885397,-16.,-15.));
#453 = VECTOR('',#454,1.);
#454 = DIRECTION('',(-1.,0.,0.));
#455 = ORIENTED_EDGE('',*,*,#456,.F.);
#456 = EDGE_CURVE('',#457,#449,#459,.T.);
#457 = VERTEX_POINT('',#458);
#458 = CARTESIAN_POINT('',(68.,-16.,4.));
#459 = LINE('',#460,#461);
#460 = CARTESIAN_POINT('',(68.,-16.,4.));
#461 = VECTOR('',#462,1.);
#462 = DIRECTION('',(-0.5,-1.922962686384E-16,-0.866025403784));
#463 = ORIENTED_EDGE('',*,*,#464,.F.);
#464 = EDGE_CURVE('',#465,#457,#467,.T.);
#465 = VERTEX_POINT('',#466);
#466 = CARTESIAN_POINT('',(80.,-16.,4.));
#467 = LINE('',#468,#469);
#468 = CARTESIAN_POINT('',(80.,-16.,4.));
#469 = VECTOR('',#470,1.);
#470 = DIRECTION('',(-1.,0.,0.));
#471 = ORIENTED_EDGE('',*,*,#472,.F.);
#472 = EDGE_CURVE('',#473,#465,#475,.T.);
#473 = VERTEX_POINT('',#474);
#474 = CARTESIAN_POINT('',(80.,-16.,-44.));
#475 = LINE('',#476,#477);
#476 = CARTESIAN_POINT('',(80.,-16.,-44.));
#477 = VECTOR('',#478,1.);
#478 = DIRECTION('',(0.,2.22044604925E-16,1.));
#479 = ORIENTED_EDGE('',*,*,#480,.F.);
#480 = EDGE_CURVE('',#481,#473,#483,.T.);
#481 = VERTEX_POINT('',#482);
#482 = CARTESIAN_POINT('',(66.,-16.,-44.));
#483 = LINE('',#484,#485);
#484 = CARTESIAN_POINT('',(-12.,-16.,-44.));
#485 = VECTOR('',#486,1.);
#486 = DIRECTION('',(1.,0.,0.));
#487 = ORIENTED_EDGE('',*,*,#488,.T.);
#488 = EDGE_CURVE('',#481,#489,#491,.T.);
#489 = VERTEX_POINT('',#490);
#490 = CARTESIAN_POINT('',(66.,-16.,-28.));
#491 = LINE('',#492,#493);
#492 = CARTESIAN_POINT('',(66.,-16.,-44.));
#493 = VECTOR('',#494,1.);
#494 = DIRECTION('',(0.,3.451266460342E-31,1.));
#495 = ORIENTED_EDGE('',*,*,#496,.T.);
#496 = EDGE_CURVE('',#489,#497,#499,.T.);
#497 = VERTEX_POINT('',#498);
#498 = CARTESIAN_POINT('',(26.,-16.,-28.));
#499 = LINE('',#500,#501);
#500 = CARTESIAN_POINT('',(66.,-16.,-28.));
#501 = VECTOR('',#502,1.);
#502 = DIRECTION('',(-1.,0.,0.));
#503 = ORIENTED_EDGE('',*,*,#504,.F.);
#504 = EDGE_CURVE('',#505,#497,#507,.T.);
#505 = VERTEX_POINT('',#506);
#506 = CARTESIAN_POINT('',(26.,-16.,-44.));
#507 = LINE('',#508,#509);
#508 = CARTESIAN_POINT('',(26.,-16.,-44.));
#509 = VECTOR('',#510,1.);
#510 = DIRECTION('',(0.,3.451266460342E-31,1.));
#511 = ORIENTED_EDGE('',*,*,#512,.F.);
#512 = EDGE_CURVE('',#407,#505,#513,.T.);
#513 = LINE('',#514,#515);
#514 = CARTESIAN_POINT('',(-12.,-16.,-44.));
#515 = VECTOR('',#516,1.);
#516 = DIRECTION('',(1.,0.,0.));
#517 = PLANE('',#518);
#518 = AXIS2_PLACEMENT_3D('',#519,#520,#521);
#519 = CARTESIAN_POINT('',(37.415430225458,-16.,-23.82875597869));
#520 = DIRECTION('',(0.,1.,-5.423418723394E-31));
#521 = DIRECTION('',(0.,5.423418723394E-31,1.));
#522 = ADVANCED_FACE('',(#523,#526),#537,.F.);
#523 = FACE_BOUND('',#524,.F.);
#524 = EDGE_LOOP('',(#525));
#525 = ORIENTED_EDGE('',*,*,#55,.F.);
#526 = FACE_BOUND('',#527,.F.);
#527 = EDGE_LOOP('',(#528));
#528 = ORIENTED_EDGE('',*,*,#529,.T.);
#529 = EDGE_CURVE('',#530,#530,#532,.T.);
#530 = VERTEX_POINT('',#531);
#531 = CARTESIAN_POINT('',(14.,-19.,4.218847493576E-15));
#532 = CIRCLE('',#533,14.);
#533 = AXIS2_PLACEMENT_3D('',#534,#535,#536);
#534 = CARTESIAN_POINT('',(0.,-19.,4.218847493576E-15));
#535 = DIRECTION('',(0.,-1.,2.22044604925E-16));
#536 = DIRECTION('',(1.,0.,0.));
#537 = PLANE('',#538);
#538 = AXIS2_PLACEMENT_3D('',#539,#540,#541);
#539 = CARTESIAN_POINT('',(-1.600905521022E-15,-19.,3.552713678801E-15)
  );
#540 = DIRECTION('',(0.,1.,-5.916456789158E-31));
#541 = DIRECTION('',(0.,5.916456789158E-31,1.));
#542 = ADVANCED_FACE('',(#543),#554,.T.);
#543 = FACE_BOUND('',#544,.T.);
#544 = EDGE_LOOP('',(#545,#546,#547,#553));
#545 = ORIENTED_EDGE('',*,*,#39,.T.);
#546 = ORIENTED_EDGE('',*,*,#431,.T.);
#547 = ORIENTED_EDGE('',*,*,#548,.F.);
#548 = EDGE_CURVE('',#311,#432,#549,.T.);
#549 = LINE('',#550,#551);
#550 = CARTESIAN_POINT('',(20.5,16.,-9.));
#551 = VECTOR('',#552,1.);
#552 = DIRECTION('',(0.,-1.,2.22044604925E-16));
#553 = ORIENTED_EDGE('',*,*,#310,.F.);
#554 = PLANE('',#555);
#555 = AXIS2_PLACEMENT_3D('',#556,#557,#558);
#556 = CARTESIAN_POINT('',(20.5,16.,-3.552713678801E-15));
#557 = DIRECTION('',(1.,0.,0.));
#558 = DIRECTION('',(0.,-2.22044604925E-16,-1.));
#559 = ADVANCED_FACE('',(#560,#563),#574,.T.);
#560 = FACE_BOUND('',#561,.T.);
#561 = EDGE_LOOP('',(#562));
#562 = ORIENTED_EDGE('',*,*,#31,.F.);
#563 = FACE_BOUND('',#564,.T.);
#564 = EDGE_LOOP('',(#565));
#565 = ORIENTED_EDGE('',*,*,#566,.T.);
#566 = EDGE_CURVE('',#567,#567,#569,.T.);
#567 = VERTEX_POINT('',#568);
#568 = CARTESIAN_POINT('',(14.,19.,-4.218847493576E-15));
#569 = CIRCLE('',#570,14.);
#570 = AXIS2_PLACEMENT_3D('',#571,#572,#573);
#571 = CARTESIAN_POINT('',(0.,19.,-4.218847493576E-15));
#572 = DIRECTION('',(0.,-1.,2.22044604925E-16));
#573 = DIRECTION('',(1.,0.,0.));
#574 = PLANE('',#575);
#575 = AXIS2_PLACEMENT_3D('',#576,#577,#578);
#576 = CARTESIAN_POINT('',(-1.600905521022E-15,19.,-3.552713678801E-15)
  );
#577 = DIRECTION('',(0.,1.,-5.916456789158E-31));
#578 = DIRECTION('',(0.,5.916456789158E-31,1.));
#579 = ADVANCED_FACE('',(#580),#613,.F.);
#580 = FACE_BOUND('',#581,.F.);
#581 = EDGE_LOOP('',(#582,#590,#591,#598,#599,#607));
#582 = ORIENTED_EDGE('',*,*,#583,.F.);
#583 = EDGE_CURVE('',#90,#584,#586,.T.);
#584 = VERTEX_POINT('',#585);
#585 = CARTESIAN_POINT('',(-20.5,10.,20.5));
#586 = LINE('',#587,#588);
#587 = CARTESIAN_POINT('',(0.,10.,20.5));
#588 = VECTOR('',#589,1.);
#589 = DIRECTION('',(-1.,0.,0.));
#590 = ORIENTED_EDGE('',*,*,#89,.T.);
#591 = ORIENTED_EDGE('',*,*,#592,.F.);
#592 = EDGE_CURVE('',#162,#92,#593,.T.);
#593 = CIRCLE('',#594,3.);
#594 = AXIS2_PLACEMENT_3D('',#595,#596,#597);
#595 = CARTESIAN_POINT('',(0.,4.831773044479E-30,20.5));
#596 = DIRECTION('',(0.,-2.465190328816E-31,-1.));
#597 = DIRECTION('',(1.,0.,0.));
#598 = ORIENTED_EDGE('',*,*,#161,.T.);
#599 = ORIENTED_EDGE('',*,*,#600,.T.);
#600 = EDGE_CURVE('',#153,#601,#603,.T.);
#601 = VERTEX_POINT('',#602);
#602 = CARTESIAN_POINT('',(-20.5,-10.,20.5));
#603 = LINE('',#604,#605);
#604 = CARTESIAN_POINT('',(0.,-10.,20.5));
#605 = VECTOR('',#606,1.);
#606 = DIRECTION('',(-1.,0.,0.));
#607 = ORIENTED_EDGE('',*,*,#608,.F.);
#608 = EDGE_CURVE('',#584,#601,#609,.T.);
#609 = LINE('',#610,#611);
#610 = CARTESIAN_POINT('',(-20.5,10.,20.5));
#611 = VECTOR('',#612,1.);
#612 = DIRECTION('',(0.,-1.,2.22044604925E-16));
#613 = PLANE('',#614);
#614 = AXIS2_PLACEMENT_3D('',#615,#616,#617);
#615 = CARTESIAN_POINT('',(0.,10.,20.5));
#616 = DIRECTION('',(0.,-2.22044604925E-16,-1.));
#617 = DIRECTION('',(-1.,0.,0.));
#618 = ADVANCED_FACE('',(#619),#694,.F.);
#619 = FACE_BOUND('',#620,.T.);
#620 = EDGE_LOOP('',(#621,#684,#690,#691,#692,#693));
#621 = ORIENTED_EDGE('',*,*,#622,.F.);
#622 = EDGE_CURVE('',#623,#623,#625,.T.);
#623 = VERTEX_POINT('',#624);
#624 = CARTESIAN_POINT('',(3.,3.549874073495E-30,13.674794331177));
#625 = B_SPLINE_CURVE_WITH_KNOTS('',8,(#626,#627,#628,#629,#630,#631,
    #632,#633,#634,#635,#636,#637,#638,#639,#640,#641,#642,#643,#644,
    #645,#646,#647,#648,#649,#650,#651,#652,#653,#654,#655,#656,#657,
    #658,#659,#660,#661,#662,#663,#664,#665,#666,#667,#668,#669,#670,
    #671,#672,#673,#674,#675,#676,#677,#678,#679,#680,#681,#682,#683),
  .UNSPECIFIED.,.T.,.F.,(9,7,7,7,7,7,7,7,9),(0.,0.121191354517,
    0.230037139509,0.322935736203,0.435334592696,0.559557778833,
    0.673519636623,0.816207109684,1.),.UNSPECIFIED.);
#626 = CARTESIAN_POINT('',(3.,-1.704146675147E-15,13.674794331177));
#627 = CARTESIAN_POINT('',(3.,0.247296690958,13.674794331177));
#628 = CARTESIAN_POINT('',(2.976703005049,0.494383069936,13.67990525798)
  );
#629 = CARTESIAN_POINT('',(2.930175963472,0.739974325191,13.690112473636
    ));
#630 = CARTESIAN_POINT('',(2.860159132752,0.982709735362,13.705239879901
    ));
#631 = CARTESIAN_POINT('',(2.76611657577,1.221037953743,13.724942593899)
  );
#632 = CARTESIAN_POINT('',(2.647284518645,1.453076778065,13.748664769875
    ));
#633 = CARTESIAN_POINT('',(2.502730705359,1.676432155577,13.77557683611)
  );
#634 = CARTESIAN_POINT('',(2.177594389196,2.077942067892,13.830488985972
    ));
#635 = CARTESIAN_POINT('',(2.000400094452,2.260583898563,13.85839984673)
  );
#636 = CARTESIAN_POINT('',(1.799458798074,2.431715875464,13.887251069878
    ));
#637 = CARTESIAN_POINT('',(1.575011839402,2.587092510907,13.915705801247
    ));
#638 = CARTESIAN_POINT('',(1.327915116394,2.722399569951,13.942150895545
    ));
#639 = CARTESIAN_POINT('',(1.059653595249,2.833235567807,13.964817953366
    ));
#640 = CARTESIAN_POINT('',(0.772422378188,2.915055691301,13.981965103331
    ));
#641 = CARTESIAN_POINT('',(0.210594909895,3.004040420425,14.000809089419
    ));
#642 = CARTESIAN_POINT('',(-5.395874209365E-02,3.019479252721,
    14.00420917772));
#643 = CARTESIAN_POINT('',(-0.319590606459,3.007996374372,
    14.001754765627));
#644 = CARTESIAN_POINT('',(-0.581342084606,2.969669605015,
    13.993397109742));
#645 = CARTESIAN_POINT('',(-0.834364284221,2.905973173016,
    13.979727064705));
#646 = CARTESIAN_POINT('',(-1.07420368744,2.819754896139,13.961875041045
    ));
#647 = CARTESIAN_POINT('',(-1.297059494413,2.715243966884,
    13.941280421555));
#648 = CARTESIAN_POINT('',(-1.74553956223,2.456313879003,13.892950782735
    ));
#649 = CARTESIAN_POINT('',(-1.96633278604,2.293478631129,13.864149698555
    ));
#650 = CARTESIAN_POINT('',(-2.162562180784,2.114217040856,
    13.834717035839));
#651 = CARTESIAN_POINT('',(-2.334851252964,1.92217124186,13.80606344957)
  );
#652 = CARTESIAN_POINT('',(-2.484018585337,1.720210483063,
    13.779269420937));
#653 = CARTESIAN_POINT('',(-2.610911516361,1.510596898072,
    13.755131672352));
#654 = CARTESIAN_POINT('',(-2.716291256693,1.29510367954,13.734234268341
    ));
#655 = CARTESIAN_POINT('',(-2.894075422103,0.831960094356,13.69793421954
    ));
#656 = CARTESIAN_POINT('',(-2.96186055134,0.583270102038,13.683337803895
    ));
#657 = CARTESIAN_POINT('',(-3.004802815087,0.331041991647,13.67377773501
    ));
#658 = CARTESIAN_POINT('',(-3.023340990745,7.696114700636E-02,
    13.669584952963));
#659 = CARTESIAN_POINT('',(-3.017656408584,-0.177452870431,
    13.670887478869));
#660 = CARTESIAN_POINT('',(-2.987674009865,-0.430706149652,
    13.677627483441));
#661 = CARTESIAN_POINT('',(-2.933053498983,-0.681193465024,
    13.68955277381));
#662 = CARTESIAN_POINT('',(-2.779884330208,-1.152599694166,
    13.721437481741));
#663 = CARTESIAN_POINT('',(-2.685370640277,-1.374148469554,
    13.740644748132));
#664 = CARTESIAN_POINT('',(-2.569122924127,-1.590426492679,
    13.76343796905));
#665 = CARTESIAN_POINT('',(-2.43040691273,-1.799794852079,13.7892915633)
  );
#666 = CARTESIAN_POINT('',(-2.268348249479,-2.000148647801,
    13.817478505026));
#667 = CARTESIAN_POINT('',(-2.08204131987,-2.188787908056,
    13.846995201723));
#668 = CARTESIAN_POINT('',(-1.870705633195,-2.362239435674,
    13.876501846334));
#669 = CARTESIAN_POINT('',(-1.337442851409,-2.708544335335,
    13.93916630813));
#670 = CARTESIAN_POINT('',(-0.988211161238,-2.878576959762,
    13.972880359156));
#671 = CARTESIAN_POINT('',(-0.59683218861,-3.001214586134,
    13.999736027594));
#672 = CARTESIAN_POINT('',(-0.179381570529,-3.061038869796,
    14.013768251619));
#673 = CARTESIAN_POINT('',(0.244222144548,-3.051566795028,
    14.011276810446));
#674 = CARTESIAN_POINT('',(0.653650653809,-2.974827919273,
    13.993743440535));
#675 = CARTESIAN_POINT('',(1.03070001629,-2.841810823809,13.965974609549
    ));
#676 = CARTESIAN_POINT('',(1.788675694203,-2.455602925815,
    13.891884515349));
#677 = CARTESIAN_POINT('',(2.148392312049,-2.174262446429,13.84164551163
    ));
#678 = CARTESIAN_POINT('',(2.440316239855,-1.851365980116,
    13.791065134281));
#679 = CARTESIAN_POINT('',(2.667706774614,-1.501824935362,
    13.746385583532));
#680 = CARTESIAN_POINT('',(2.834582610341,-1.136095770994,13.71108029772
    ));
#681 = CARTESIAN_POINT('',(2.944599288244,-0.761154492269,
    13.686948961874));
#682 = CARTESIAN_POINT('',(3.,-0.381347758767,13.674794331177));
#683 = CARTESIAN_POINT('',(3.,-1.704146675147E-15,13.674794331177));
#684 = ORIENTED_EDGE('',*,*,#685,.T.);
#685 = EDGE_CURVE('',#623,#170,#686,.T.);
#686 = LINE('',#687,#688);
#687 = CARTESIAN_POINT('',(3.,0.,0.));
#688 = VECTOR('',#689,1.);
#689 = DIRECTION('',(0.,2.465190328816E-31,1.));
#690 = ORIENTED_EDGE('',*,*,#232,.T.);
#691 = ORIENTED_EDGE('',*,*,#592,.F.);
#692 = ORIENTED_EDGE('',*,*,#169,.T.);
#693 = ORIENTED_EDGE('',*,*,#685,.F.);
#694 = CYLINDRICAL_SURFACE('',#695,3.);
#695 = AXIS2_PLACEMENT_3D('',#696,#697,#698);
#696 = CARTESIAN_POINT('',(0.,0.,0.));
#697 = DIRECTION('',(0.,-2.465190328816E-31,-1.));
#698 = DIRECTION('',(1.,0.,0.));
#699 = ADVANCED_FACE('',(#700),#736,.T.);
#700 = FACE_BOUND('',#701,.T.);
#701 = EDGE_LOOP('',(#702,#703,#711,#719,#727,#733,#734,#735));
#702 = ORIENTED_EDGE('',*,*,#600,.T.);
#703 = ORIENTED_EDGE('',*,*,#704,.T.);
#704 = EDGE_CURVE('',#601,#705,#707,.T.);
#705 = VERTEX_POINT('',#706);
#706 = CARTESIAN_POINT('',(-20.5,-10.,7.5));
#707 = LINE('',#708,#709);
#708 = CARTESIAN_POINT('',(-20.5,-10.,20.5));
#709 = VECTOR('',#710,1.);
#710 = DIRECTION('',(0.,-2.22044604925E-16,-1.));
#711 = ORIENTED_EDGE('',*,*,#712,.T.);
#712 = EDGE_CURVE('',#705,#713,#715,.T.);
#713 = VERTEX_POINT('',#714);
#714 = CARTESIAN_POINT('',(-50.5,-10.,7.5));
#715 = LINE('',#716,#717);
#716 = CARTESIAN_POINT('',(-20.5,-10.,7.5));
#717 = VECTOR('',#718,1.);
#718 = DIRECTION('',(-1.,0.,0.));
#719 = ORIENTED_EDGE('',*,*,#720,.T.);
#720 = EDGE_CURVE('',#713,#721,#723,.T.);
#721 = VERTEX_POINT('',#722);
#722 = CARTESIAN_POINT('',(-50.5,-10.,-5.5));
#723 = LINE('',#724,#725);
#724 = CARTESIAN_POINT('',(-50.5,-10.,7.5));
#725 = VECTOR('',#726,1.);
#726 = DIRECTION('',(0.,-2.22044604925E-16,-1.));
#727 = ORIENTED_EDGE('',*,*,#728,.T.);
#728 = EDGE_CURVE('',#721,#127,#729,.T.);
#729 = LINE('',#730,#731);
#730 = CARTESIAN_POINT('',(-50.5,-10.,-5.5));
#731 = VECTOR('',#732,1.);
#732 = DIRECTION('',(0.970295726276,-5.371745173114E-17,-0.2419218956));
#733 = ORIENTED_EDGE('',*,*,#134,.T.);
#734 = ORIENTED_EDGE('',*,*,#143,.T.);
#735 = ORIENTED_EDGE('',*,*,#152,.T.);
#736 = PLANE('',#737);
#737 = AXIS2_PLACEMENT_3D('',#738,#739,#740);
#738 = CARTESIAN_POINT('',(-25.43784619612,-10.,4.69668671104));
#739 = DIRECTION('',(0.,-1.,2.560751584402E-16));
#740 = DIRECTION('',(0.,2.560751584402E-16,1.));
#741 = ADVANCED_FACE('',(#742),#760,.F.);
#742 = FACE_BOUND('',#743,.F.);
#743 = EDGE_LOOP('',(#744,#752,#753,#754));
#744 = ORIENTED_EDGE('',*,*,#745,.T.);
#745 = EDGE_CURVE('',#746,#721,#748,.T.);
#746 = VERTEX_POINT('',#747);
#747 = CARTESIAN_POINT('',(-50.5,10.,-5.5));
#748 = LINE('',#749,#750);
#749 = CARTESIAN_POINT('',(-50.5,10.,-5.5));
#750 = VECTOR('',#751,1.);
#751 = DIRECTION('',(0.,-1.,2.22044604925E-16));
#752 = ORIENTED_EDGE('',*,*,#728,.T.);
#753 = ORIENTED_EDGE('',*,*,#126,.F.);
#754 = ORIENTED_EDGE('',*,*,#755,.F.);
#755 = EDGE_CURVE('',#746,#118,#756,.T.);
#756 = LINE('',#757,#758);
#757 = CARTESIAN_POINT('',(-50.5,10.,-5.5));
#758 = VECTOR('',#759,1.);
#759 = DIRECTION('',(0.970295726276,-5.371745173114E-17,-0.2419218956));
#760 = PLANE('',#761);
#761 = AXIS2_PLACEMENT_3D('',#762,#763,#764);
#762 = CARTESIAN_POINT('',(-50.5,10.,-5.5));
#763 = DIRECTION('',(0.2419218956,2.154489312014E-16,0.970295726276));
#764 = DIRECTION('',(0.970295726276,-5.371745173114E-17,-0.2419218956));
#765 = ADVANCED_FACE('',(#766),#795,.T.);
#766 = FACE_BOUND('',#767,.T.);
#767 = EDGE_LOOP('',(#768,#778,#784,#785,#786,#787,#788,#789));
#768 = ORIENTED_EDGE('',*,*,#769,.F.);
#769 = EDGE_CURVE('',#770,#772,#774,.T.);
#770 = VERTEX_POINT('',#771);
#771 = CARTESIAN_POINT('',(-20.5,10.,7.5));
#772 = VERTEX_POINT('',#773);
#773 = CARTESIAN_POINT('',(-50.5,10.,7.5));
#774 = LINE('',#775,#776);
#775 = CARTESIAN_POINT('',(-20.5,10.,7.5));
#776 = VECTOR('',#777,1.);
#777 = DIRECTION('',(-1.,0.,0.));
#778 = ORIENTED_EDGE('',*,*,#779,.F.);
#779 = EDGE_CURVE('',#584,#770,#780,.T.);
#780 = LINE('',#781,#782);
#781 = CARTESIAN_POINT('',(-20.5,10.,20.5));
#782 = VECTOR('',#783,1.);
#783 = DIRECTION('',(0.,-2.22044604925E-16,-1.));
#784 = ORIENTED_EDGE('',*,*,#583,.F.);
#785 = ORIENTED_EDGE('',*,*,#99,.F.);
#786 = ORIENTED_EDGE('',*,*,#108,.F.);
#787 = ORIENTED_EDGE('',*,*,#117,.F.);
#788 = ORIENTED_EDGE('',*,*,#755,.F.);
#789 = ORIENTED_EDGE('',*,*,#790,.F.);
#790 = EDGE_CURVE('',#772,#746,#791,.T.);
#791 = LINE('',#792,#793);
#792 = CARTESIAN_POINT('',(-50.5,10.,7.5));
#793 = VECTOR('',#794,1.);
#794 = DIRECTION('',(0.,-2.22044604925E-16,-1.));
#795 = PLANE('',#796);
#796 = AXIS2_PLACEMENT_3D('',#797,#798,#799);
#797 = CARTESIAN_POINT('',(-25.43784619612,10.,4.69668671104));
#798 = DIRECTION('',(0.,1.,-3.301308349363E-16));
#799 = DIRECTION('',(0.,-3.301308349363E-16,-1.));
#800 = ADVANCED_FACE('',(#801,#890,#901,#912),#923,.T.);
#801 = FACE_BOUND('',#802,.T.);
#802 = EDGE_LOOP('',(#803,#804,#805,#813,#821,#827,#828,#836,#844,#852,
    #860,#866,#867,#875,#883,#889));
#803 = ORIENTED_EDGE('',*,*,#414,.F.);
#804 = ORIENTED_EDGE('',*,*,#391,.T.);
#805 = ORIENTED_EDGE('',*,*,#806,.T.);
#806 = EDGE_CURVE('',#384,#807,#809,.T.);
#807 = VERTEX_POINT('',#808);
#808 = CARTESIAN_POINT('',(26.,32.,-44.));
#809 = LINE('',#810,#811);
#810 = CARTESIAN_POINT('',(26.,16.,-44.));
#811 = VECTOR('',#812,1.);
#812 = DIRECTION('',(0.,1.,-3.944304526105E-31));
#813 = ORIENTED_EDGE('',*,*,#814,.T.);
#814 = EDGE_CURVE('',#807,#815,#817,.T.);
#815 = VERTEX_POINT('',#816);
#816 = CARTESIAN_POINT('',(50.,32.,-44.));
#817 = LINE('',#818,#819);
#818 = CARTESIAN_POINT('',(26.,32.,-44.));
#819 = VECTOR('',#820,1.);
#820 = DIRECTION('',(1.,0.,0.));
#821 = ORIENTED_EDGE('',*,*,#822,.T.);
#822 = EDGE_CURVE('',#815,#360,#823,.T.);
#823 = LINE('',#824,#825);
#824 = CARTESIAN_POINT('',(50.,32.,-44.));
#825 = VECTOR('',#826,1.);
#826 = DIRECTION('',(0.707106781187,-0.707106781187,2.711709361697E-31)
  );
#827 = ORIENTED_EDGE('',*,*,#359,.T.);
#828 = ORIENTED_EDGE('',*,*,#829,.T.);
#829 = EDGE_CURVE('',#352,#830,#832,.T.);
#830 = VERTEX_POINT('',#831);
#831 = CARTESIAN_POINT('',(80.,6.,-44.));
#832 = LINE('',#833,#834);
#833 = CARTESIAN_POINT('',(80.,16.,-44.));
#834 = VECTOR('',#835,1.);
#835 = DIRECTION('',(0.,-1.,2.22044604925E-16));
#836 = ORIENTED_EDGE('',*,*,#837,.T.);
#837 = EDGE_CURVE('',#830,#838,#840,.T.);
#838 = VERTEX_POINT('',#839);
#839 = CARTESIAN_POINT('',(109.,6.,-44.));
#840 = LINE('',#841,#842);
#841 = CARTESIAN_POINT('',(80.,6.,-44.));
#842 = VECTOR('',#843,1.);
#843 = DIRECTION('',(1.,0.,0.));
#844 = ORIENTED_EDGE('',*,*,#845,.T.);
#845 = EDGE_CURVE('',#838,#846,#848,.T.);
#846 = VERTEX_POINT('',#847);
#847 = CARTESIAN_POINT('',(109.,-6.,-44.));
#848 = LINE('',#849,#850);
#849 = CARTESIAN_POINT('',(109.,6.,-44.));
#850 = VECTOR('',#851,1.);
#851 = DIRECTION('',(0.,-1.,2.22044604925E-16));
#852 = ORIENTED_EDGE('',*,*,#853,.F.);
#853 = EDGE_CURVE('',#854,#846,#856,.T.);
#854 = VERTEX_POINT('',#855);
#855 = CARTESIAN_POINT('',(80.,-6.,-44.));
#856 = LINE('',#857,#858);
#857 = CARTESIAN_POINT('',(80.,-6.,-44.));
#858 = VECTOR('',#859,1.);
#859 = DIRECTION('',(1.,0.,0.));
#860 = ORIENTED_EDGE('',*,*,#861,.T.);
#861 = EDGE_CURVE('',#854,#473,#862,.T.);
#862 = LINE('',#863,#864);
#863 = CARTESIAN_POINT('',(80.,16.,-44.));
#864 = VECTOR('',#865,1.);
#865 = DIRECTION('',(0.,-1.,2.22044604925E-16));
#866 = ORIENTED_EDGE('',*,*,#480,.F.);
#867 = ORIENTED_EDGE('',*,*,#868,.F.);
#868 = EDGE_CURVE('',#869,#481,#871,.T.);
#869 = VERTEX_POINT('',#870);
#870 = CARTESIAN_POINT('',(50.,-32.,-44.));
#871 = LINE('',#872,#873);
#872 = CARTESIAN_POINT('',(50.,-32.,-44.));
#873 = VECTOR('',#874,1.);
#874 = DIRECTION('',(0.707106781187,0.707106781187,-2.218671295934E-31)
  );
#875 = ORIENTED_EDGE('',*,*,#876,.F.);
#876 = EDGE_CURVE('',#877,#869,#879,.T.);
#877 = VERTEX_POINT('',#878);
#878 = CARTESIAN_POINT('',(26.,-32.,-44.));
#879 = LINE('',#880,#881);
#880 = CARTESIAN_POINT('',(26.,-32.,-44.));
#881 = VECTOR('',#882,1.);
#882 = DIRECTION('',(1.,0.,0.));
#883 = ORIENTED_EDGE('',*,*,#884,.F.);
#884 = EDGE_CURVE('',#505,#877,#885,.T.);
#885 = LINE('',#886,#887);
#886 = CARTESIAN_POINT('',(26.,-16.,-44.));
#887 = VECTOR('',#888,1.);
#888 = DIRECTION('',(0.,-1.,3.451266460342E-31));
#889 = ORIENTED_EDGE('',*,*,#512,.F.);
#890 = FACE_BOUND('',#891,.T.);
#891 = EDGE_LOOP('',(#892));
#892 = ORIENTED_EDGE('',*,*,#893,.T.);
#893 = EDGE_CURVE('',#894,#894,#896,.T.);
#894 = VERTEX_POINT('',#895);
#895 = CARTESIAN_POINT('',(35.,-24.,-44.));
#896 = CIRCLE('',#897,3.);
#897 = AXIS2_PLACEMENT_3D('',#898,#899,#900);
#898 = CARTESIAN_POINT('',(38.,-24.,-44.));
#899 = DIRECTION('',(0.,1.479114197289E-31,1.));
#900 = DIRECTION('',(-1.,0.,0.));
#901 = FACE_BOUND('',#902,.T.);
#902 = EDGE_LOOP('',(#903));
#903 = ORIENTED_EDGE('',*,*,#904,.T.);
#904 = EDGE_CURVE('',#905,#905,#907,.T.);
#905 = VERTEX_POINT('',#906);
#906 = CARTESIAN_POINT('',(32.,-1.577721810442E-30,-44.));
#907 = CIRCLE('',#908,6.);
#908 = AXIS2_PLACEMENT_3D('',#909,#910,#911);
#909 = CARTESIAN_POINT('',(38.,-1.577721810442E-30,-44.));
#910 = DIRECTION('',(0.,4.930380657631E-32,1.));
#911 = DIRECTION('',(-1.,-0.,0.));
#912 = FACE_BOUND('',#913,.T.);
#913 = EDGE_LOOP('',(#914));
#914 = ORIENTED_EDGE('',*,*,#915,.T.);
#915 = EDGE_CURVE('',#916,#916,#918,.T.);
#916 = VERTEX_POINT('',#917);
#917 = CARTESIAN_POINT('',(35.,24.,-44.));
#918 = CIRCLE('',#919,3.);
#919 = AXIS2_PLACEMENT_3D('',#920,#921,#922);
#920 = CARTESIAN_POINT('',(38.,24.,-44.));
#921 = DIRECTION('',(0.,9.860761315263E-32,1.));
#922 = DIRECTION('',(-1.,0.,0.));
#923 = PLANE('',#924);
#924 = AXIS2_PLACEMENT_3D('',#925,#926,#927);
#925 = CARTESIAN_POINT('',(45.157472115951,-5.118357853373E-15,-44.));
#926 = DIRECTION('',(0.,-9.001430074642E-17,-1.));
#927 = DIRECTION('',(0.,1.,-9.001430074642E-17));
#928 = ADVANCED_FACE('',(#929),#947,.F.);
#929 = FACE_BOUND('',#930,.T.);
#930 = EDGE_LOOP('',(#931,#932,#940,#946));
#931 = ORIENTED_EDGE('',*,*,#383,.T.);
#932 = ORIENTED_EDGE('',*,*,#933,.T.);
#933 = EDGE_CURVE('',#376,#934,#936,.T.);
#934 = VERTEX_POINT('',#935);
#935 = CARTESIAN_POINT('',(26.,32.,-28.));
#936 = LINE('',#937,#938);
#937 = CARTESIAN_POINT('',(26.,16.,-28.));
#938 = VECTOR('',#939,1.);
#939 = DIRECTION('',(0.,1.,-3.944304526105E-31));
#940 = ORIENTED_EDGE('',*,*,#941,.F.);
#941 = EDGE_CURVE('',#807,#934,#942,.T.);
#942 = LINE('',#943,#944);
#943 = CARTESIAN_POINT('',(26.,32.,-44.));
#944 = VECTOR('',#945,1.);
#945 = DIRECTION('',(0.,2.958228394579E-31,1.));
#946 = ORIENTED_EDGE('',*,*,#806,.F.);
#947 = PLANE('',#948);
#948 = AXIS2_PLACEMENT_3D('',#949,#950,#951);
#949 = CARTESIAN_POINT('',(26.,16.,-44.));
#950 = DIRECTION('',(1.,0.,0.));
#951 = DIRECTION('',(0.,-1.,2.958228394579E-31));
#952 = ADVANCED_FACE('',(#953,#971),#982,.T.);
#953 = FACE_BOUND('',#954,.F.);
#954 = EDGE_LOOP('',(#955,#956,#964,#970));
#955 = ORIENTED_EDGE('',*,*,#933,.T.);
#956 = ORIENTED_EDGE('',*,*,#957,.T.);
#957 = EDGE_CURVE('',#934,#958,#960,.T.);
#958 = VERTEX_POINT('',#959);
#959 = CARTESIAN_POINT('',(50.,32.,-28.));
#960 = LINE('',#961,#962);
#961 = CARTESIAN_POINT('',(26.,32.,-28.));
#962 = VECTOR('',#963,1.);
#963 = DIRECTION('',(1.,0.,0.));
#964 = ORIENTED_EDGE('',*,*,#965,.T.);
#965 = EDGE_CURVE('',#958,#368,#966,.T.);
#966 = LINE('',#967,#968);
#967 = CARTESIAN_POINT('',(50.,32.,-28.));
#968 = VECTOR('',#969,1.);
#969 = DIRECTION('',(0.707106781187,-0.707106781187,2.711709361697E-31)
  );
#970 = ORIENTED_EDGE('',*,*,#375,.T.);
#971 = FACE_BOUND('',#972,.F.);
#972 = EDGE_LOOP('',(#973));
#973 = ORIENTED_EDGE('',*,*,#974,.F.);
#974 = EDGE_CURVE('',#975,#975,#977,.T.);
#975 = VERTEX_POINT('',#976);
#976 = CARTESIAN_POINT('',(35.,24.,-28.));
#977 = CIRCLE('',#978,3.);
#978 = AXIS2_PLACEMENT_3D('',#979,#980,#981);
#979 = CARTESIAN_POINT('',(38.,24.,-28.));
#980 = DIRECTION('',(-0.,-1.972152263053E-31,-1.));
#981 = DIRECTION('',(-1.,0.,0.));
#982 = PLANE('',#983);
#983 = AXIS2_PLACEMENT_3D('',#984,#985,#986);
#984 = CARTESIAN_POINT('',(43.656854249492,22.752769934739,-28.));
#985 = DIRECTION('',(0.,3.944304526105E-31,1.));
#986 = DIRECTION('',(-1.,0.,0.));
#987 = ADVANCED_FACE('',(#988),#999,.F.);
#988 = FACE_BOUND('',#989,.T.);
#989 = EDGE_LOOP('',(#990,#996,#997,#998));
#990 = ORIENTED_EDGE('',*,*,#991,.T.);
#991 = EDGE_CURVE('',#815,#958,#992,.T.);
#992 = LINE('',#993,#994);
#993 = CARTESIAN_POINT('',(50.,32.,-44.));
#994 = VECTOR('',#995,1.);
#995 = DIRECTION('',(0.,2.958228394579E-31,1.));
#996 = ORIENTED_EDGE('',*,*,#965,.T.);
#997 = ORIENTED_EDGE('',*,*,#367,.F.);
#998 = ORIENTED_EDGE('',*,*,#822,.F.);
#999 = PLANE('',#1000);
#1000 = AXIS2_PLACEMENT_3D('',#1001,#1002,#1003);
#1001 = CARTESIAN_POINT('',(50.,32.,-44.));
#1002 = DIRECTION('',(-0.707106781187,-0.707106781187,1.989671831303E-31
    ));
#1003 = DIRECTION('',(-0.707106781187,0.707106781187,-1.989671831303E-31
    ));
#1004 = ADVANCED_FACE('',(#1005),#1023,.F.);
#1005 = FACE_BOUND('',#1006,.F.);
#1006 = EDGE_LOOP('',(#1007,#1008,#1009,#1017));
#1007 = ORIENTED_EDGE('',*,*,#351,.F.);
#1008 = ORIENTED_EDGE('',*,*,#829,.T.);
#1009 = ORIENTED_EDGE('',*,*,#1010,.F.);
#1010 = EDGE_CURVE('',#1011,#830,#1013,.T.);
#1011 = VERTEX_POINT('',#1012);
#1012 = CARTESIAN_POINT('',(80.,6.,4.));
#1013 = LINE('',#1014,#1015);
#1014 = CARTESIAN_POINT('',(80.,6.,4.));
#1015 = VECTOR('',#1016,1.);
#1016 = DIRECTION('',(-2.960594732334E-16,-2.22044604925E-16,-1.));
#1017 = ORIENTED_EDGE('',*,*,#1018,.F.);
#1018 = EDGE_CURVE('',#344,#1011,#1019,.T.);
#1019 = LINE('',#1020,#1021);
#1020 = CARTESIAN_POINT('',(80.,16.,4.));
#1021 = VECTOR('',#1022,1.);
#1022 = DIRECTION('',(0.,-1.,2.22044604925E-16));
#1023 = PLANE('',#1024);
#1024 = AXIS2_PLACEMENT_3D('',#1025,#1026,#1027);
#1025 = CARTESIAN_POINT('',(80.,16.,-44.));
#1026 = DIRECTION('',(-1.,0.,0.));
#1027 = DIRECTION('',(0.,2.22044604925E-16,1.));
#1028 = ADVANCED_FACE('',(#1029),#1070,.T.);
#1029 = FACE_BOUND('',#1030,.T.);
#1030 = EDGE_LOOP('',(#1031,#1032,#1033,#1039,#1040,#1048,#1056,#1064));
#1031 = ORIENTED_EDGE('',*,*,#1018,.F.);
#1032 = ORIENTED_EDGE('',*,*,#343,.T.);
#1033 = ORIENTED_EDGE('',*,*,#1034,.T.);
#1034 = EDGE_CURVE('',#336,#457,#1035,.T.);
#1035 = LINE('',#1036,#1037);
#1036 = CARTESIAN_POINT('',(68.,16.,4.));
#1037 = VECTOR('',#1038,1.);
#1038 = DIRECTION('',(0.,-1.,2.22044604925E-16));
#1039 = ORIENTED_EDGE('',*,*,#464,.F.);
#1040 = ORIENTED_EDGE('',*,*,#1041,.F.);
#1041 = EDGE_CURVE('',#1042,#465,#1044,.T.);
#1042 = VERTEX_POINT('',#1043);
#1043 = CARTESIAN_POINT('',(80.,-6.,4.));
#1044 = LINE('',#1045,#1046);
#1045 = CARTESIAN_POINT('',(80.,16.,4.));
#1046 = VECTOR('',#1047,1.);
#1047 = DIRECTION('',(0.,-1.,2.22044604925E-16));
#1048 = ORIENTED_EDGE('',*,*,#1049,.F.);
#1049 = EDGE_CURVE('',#1050,#1042,#1052,.T.);
#1050 = VERTEX_POINT('',#1051);
#1051 = CARTESIAN_POINT('',(109.,-6.,4.));
#1052 = LINE('',#1053,#1054);
#1053 = CARTESIAN_POINT('',(109.,-6.,4.));
#1054 = VECTOR('',#1055,1.);
#1055 = DIRECTION('',(-1.,0.,0.));
#1056 = ORIENTED_EDGE('',*,*,#1057,.F.);
#1057 = EDGE_CURVE('',#1058,#1050,#1060,.T.);
#1058 = VERTEX_POINT('',#1059);
#1059 = CARTESIAN_POINT('',(109.,6.,4.));
#1060 = LINE('',#1061,#1062);
#1061 = CARTESIAN_POINT('',(109.,6.,4.));
#1062 = VECTOR('',#1063,1.);
#1063 = DIRECTION('',(0.,-1.,2.22044604925E-16));
#1064 = ORIENTED_EDGE('',*,*,#1065,.T.);
#1065 = EDGE_CURVE('',#1058,#1011,#1066,.T.);
#1066 = LINE('',#1067,#1068);
#1067 = CARTESIAN_POINT('',(109.,6.,4.));
#1068 = VECTOR('',#1069,1.);
#1069 = DIRECTION('',(-1.,0.,0.));
#1070 = PLANE('',#1071);
#1071 = AXIS2_PLACEMENT_3D('',#1072,#1073,#1074);
#1072 = CARTESIAN_POINT('',(84.527397260274,2.798370363439E-16,4.));
#1073 = DIRECTION('',(0.,2.231674032914E-16,1.));
#1074 = DIRECTION('',(0.,-1.,2.231674032914E-16));
#1075 = ADVANCED_FACE('',(#1076),#1087,.F.);
#1076 = FACE_BOUND('',#1077,.F.);
#1077 = EDGE_LOOP('',(#1078,#1079,#1080,#1086));
#1078 = ORIENTED_EDGE('',*,*,#1034,.T.);
#1079 = ORIENTED_EDGE('',*,*,#456,.T.);
#1080 = ORIENTED_EDGE('',*,*,#1081,.F.);
#1081 = EDGE_CURVE('',#328,#449,#1082,.T.);
#1082 = LINE('',#1083,#1084);
#1083 = CARTESIAN_POINT('',(57.030344885397,16.,-15.));
#1084 = VECTOR('',#1085,1.);
#1085 = DIRECTION('',(0.,-1.,2.22044604925E-16));
#1086 = ORIENTED_EDGE('',*,*,#335,.F.);
#1087 = PLANE('',#1088);
#1088 = AXIS2_PLACEMENT_3D('',#1089,#1090,#1091);
#1089 = CARTESIAN_POINT('',(68.,16.,4.));
#1090 = DIRECTION('',(0.866025403784,-1.110223024625E-16,-0.5));
#1091 = DIRECTION('',(-0.5,-1.922962686384E-16,-0.866025403784));
#1092 = ADVANCED_FACE('',(#1093),#1121,.F.);
#1093 = FACE_BOUND('',#1094,.F.);
#1094 = EDGE_LOOP('',(#1095,#1096,#1097,#1098,#1106,#1115));
#1095 = ORIENTED_EDGE('',*,*,#327,.F.);
#1096 = ORIENTED_EDGE('',*,*,#1081,.T.);
#1097 = ORIENTED_EDGE('',*,*,#448,.T.);
#1098 = ORIENTED_EDGE('',*,*,#1099,.F.);
#1099 = EDGE_CURVE('',#1100,#440,#1102,.T.);
#1100 = VERTEX_POINT('',#1101);
#1101 = CARTESIAN_POINT('',(26.5,-4.898979485566,-15.));
#1102 = LINE('',#1103,#1104);
#1103 = CARTESIAN_POINT('',(26.5,16.,-15.));
#1104 = VECTOR('',#1105,1.);
#1105 = DIRECTION('',(0.,-1.,2.22044604925E-16));
#1106 = ORIENTED_EDGE('',*,*,#1107,.T.);
#1107 = EDGE_CURVE('',#1100,#1108,#1110,.T.);
#1108 = VERTEX_POINT('',#1109);
#1109 = CARTESIAN_POINT('',(26.5,4.898979485566,-15.));
#1110 = CIRCLE('',#1111,12.5);
#1111 = AXIS2_PLACEMENT_3D('',#1112,#1113,#1114);
#1112 = CARTESIAN_POINT('',(38.,-3.330669073875E-15,-15.));
#1113 = DIRECTION('',(0.,9.860761315263E-32,1.));
#1114 = DIRECTION('',(-1.,0.,0.));
#1115 = ORIENTED_EDGE('',*,*,#1116,.F.);
#1116 = EDGE_CURVE('',#319,#1108,#1117,.T.);
#1117 = LINE('',#1118,#1119);
#1118 = CARTESIAN_POINT('',(26.5,16.,-15.));
#1119 = VECTOR('',#1120,1.);
#1120 = DIRECTION('',(0.,-1.,2.22044604925E-16));
#1121 = PLANE('',#1122);
#1122 = AXIS2_PLACEMENT_3D('',#1123,#1124,#1125);
#1123 = CARTESIAN_POINT('',(57.030344885397,16.,-15.));
#1124 = DIRECTION('',(0.,-2.22044604925E-16,-1.));
#1125 = DIRECTION('',(-1.,0.,0.));
#1126 = ADVANCED_FACE('',(#1127),#1166,.F.);
#1127 = FACE_BOUND('',#1128,.T.);
#1128 = EDGE_LOOP('',(#1129,#1130,#1131,#1132,#1133,#1150,#1165));
#1129 = ORIENTED_EDGE('',*,*,#318,.F.);
#1130 = ORIENTED_EDGE('',*,*,#548,.T.);
#1131 = ORIENTED_EDGE('',*,*,#439,.T.);
#1132 = ORIENTED_EDGE('',*,*,#1099,.F.);
#1133 = ORIENTED_EDGE('',*,*,#1134,.F.);
#1134 = EDGE_CURVE('',#1135,#1100,#1137,.T.);
#1135 = VERTEX_POINT('',#1136);
#1136 = CARTESIAN_POINT('',(25.5,-3.330669073875E-15,-14.9160797831));
#1137 = B_SPLINE_CURVE_WITH_KNOTS('',6,(#1138,#1139,#1140,#1141,#1142,
    #1143,#1144,#1145,#1146,#1147,#1148,#1149),.UNSPECIFIED.,.F.,.F.,(7,
    5,7),(0.,0.324822569723,1.),.UNSPECIFIED.);
#1138 = CARTESIAN_POINT('',(25.5,-5.338387533904E-15,-14.9160797831));
#1139 = CARTESIAN_POINT('',(25.5,-0.269088764033,-14.9160797831));
#1140 = CARTESIAN_POINT('',(25.506951400327,-0.538177667961,
    -14.91725481593));
#1141 = CARTESIAN_POINT('',(25.52085377272,-0.807144140943,
    -14.91960471836));
#1142 = CARTESIAN_POINT('',(25.541715187522,-1.07586640319,
    -14.92306788255));
#1143 = CARTESIAN_POINT('',(25.569552213677,-1.344223465957,
    -14.92752125602));
#1144 = CARTESIAN_POINT('',(25.676803705113,-2.168894195647,
    -14.94371189707));
#1145 = CARTESIAN_POINT('',(25.779450092731,-2.723478360111,
    -14.95812161529));
#1146 = CARTESIAN_POINT('',(25.912559234057,-3.274946335016,
    -14.97436111648));
#1147 = CARTESIAN_POINT('',(26.076586962687,-3.822274629385,
    -14.98962022158));
#1148 = CARTESIAN_POINT('',(26.272174287,-4.364175102895,-15.));
#1149 = CARTESIAN_POINT('',(26.5,-4.898979485566,-15.));
#1150 = ORIENTED_EDGE('',*,*,#1151,.F.);
#1151 = EDGE_CURVE('',#1108,#1135,#1152,.T.);
#1152 = B_SPLINE_CURVE_WITH_KNOTS('',6,(#1153,#1154,#1155,#1156,#1157,
    #1158,#1159,#1160,#1161,#1162,#1163,#1164),.UNSPECIFIED.,.F.,.F.,(7,
    5,7),(0.,0.676063881474,1.),.UNSPECIFIED.);
#1153 = CARTESIAN_POINT('',(26.5,4.898979485566,-15.));
#1154 = CARTESIAN_POINT('',(26.271875206467,4.363473032977,-15.));
#1155 = CARTESIAN_POINT('',(26.076073472503,3.820851780662,
    -14.98959295753));
#1156 = CARTESIAN_POINT('',(25.911913413997,3.272790752104,
    -14.97430097951));
#1157 = CARTESIAN_POINT('',(25.778751411168,2.720582463018,
    -14.95803634294));
#1158 = CARTESIAN_POINT('',(25.676130455898,2.165253712509,
    -14.94361733603));
#1159 = CARTESIAN_POINT('',(25.569172956869,1.340562259493,
    -14.92746057347));
#1160 = CARTESIAN_POINT('',(25.541487810124,1.072933462962,
    -14.92303013425));
#1161 = CARTESIAN_POINT('',(25.520740124795,0.804942441829,
    -14.91958550836));
#1162 = CARTESIAN_POINT('',(25.506913515419,0.536709201927,
    -14.91724841181));
#1163 = CARTESIAN_POINT('',(25.5,0.268354531258,-14.9160797831));
#1164 = CARTESIAN_POINT('',(25.5,-2.017035475732E-15,-14.9160797831));
#1165 = ORIENTED_EDGE('',*,*,#1116,.F.);
#1166 = CYLINDRICAL_SURFACE('',#1167,6.);
#1167 = AXIS2_PLACEMENT_3D('',#1168,#1169,#1170);
#1168 = CARTESIAN_POINT('',(26.5,16.,-9.));
#1169 = DIRECTION('',(0.,1.,-2.22044604925E-16));
#1170 = DIRECTION('',(1.,0.,0.));
#1171 = ADVANCED_FACE('',(#1172),#1190,.F.);
#1172 = FACE_BOUND('',#1173,.F.);
#1173 = EDGE_LOOP('',(#1174,#1175,#1183,#1189));
#1174 = ORIENTED_EDGE('',*,*,#504,.T.);
#1175 = ORIENTED_EDGE('',*,*,#1176,.T.);
#1176 = EDGE_CURVE('',#497,#1177,#1179,.T.);
#1177 = VERTEX_POINT('',#1178);
#1178 = CARTESIAN_POINT('',(26.,-32.,-28.));
#1179 = LINE('',#1180,#1181);
#1180 = CARTESIAN_POINT('',(26.,-16.,-28.));
#1181 = VECTOR('',#1182,1.);
#1182 = DIRECTION('',(0.,-1.,3.451266460342E-31));
#1183 = ORIENTED_EDGE('',*,*,#1184,.F.);
#1184 = EDGE_CURVE('',#877,#1177,#1185,.T.);
#1185 = LINE('',#1186,#1187);
#1186 = CARTESIAN_POINT('',(26.,-32.,-44.));
#1187 = VECTOR('',#1188,1.);
#1188 = DIRECTION('',(0.,3.451266460342E-31,1.));
#1189 = ORIENTED_EDGE('',*,*,#884,.F.);
#1190 = PLANE('',#1191);
#1191 = AXIS2_PLACEMENT_3D('',#1192,#1193,#1194);
#1192 = CARTESIAN_POINT('',(26.,-16.,-44.));
#1193 = DIRECTION('',(1.,0.,0.));
#1194 = DIRECTION('',(0.,-1.,3.451266460342E-31));
#1195 = ADVANCED_FACE('',(#1196,#1214),#1225,.T.);
#1196 = FACE_BOUND('',#1197,.T.);
#1197 = EDGE_LOOP('',(#1198,#1199,#1207,#1213));
#1198 = ORIENTED_EDGE('',*,*,#1176,.T.);
#1199 = ORIENTED_EDGE('',*,*,#1200,.T.);
#1200 = EDGE_CURVE('',#1177,#1201,#1203,.T.);
#1201 = VERTEX_POINT('',#1202);
#1202 = CARTESIAN_POINT('',(50.,-32.,-28.));
#1203 = LINE('',#1204,#1205);
#1204 = CARTESIAN_POINT('',(26.,-32.,-28.));
#1205 = VECTOR('',#1206,1.);
#1206 = DIRECTION('',(1.,0.,0.));
#1207 = ORIENTED_EDGE('',*,*,#1208,.T.);
#1208 = EDGE_CURVE('',#1201,#489,#1209,.T.);
#1209 = LINE('',#1210,#1211);
#1210 = CARTESIAN_POINT('',(50.,-32.,-28.));
#1211 = VECTOR('',#1212,1.);
#1212 = DIRECTION('',(0.707106781187,0.707106781187,-2.218671295934E-31)
  );
#1213 = ORIENTED_EDGE('',*,*,#496,.T.);
#1214 = FACE_BOUND('',#1215,.T.);
#1215 = EDGE_LOOP('',(#1216));
#1216 = ORIENTED_EDGE('',*,*,#1217,.F.);
#1217 = EDGE_CURVE('',#1218,#1218,#1220,.T.);
#1218 = VERTEX_POINT('',#1219);
#1219 = CARTESIAN_POINT('',(35.,-24.,-28.));
#1220 = CIRCLE('',#1221,3.);
#1221 = AXIS2_PLACEMENT_3D('',#1222,#1223,#1224);
#1222 = CARTESIAN_POINT('',(38.,-24.,-28.));
#1223 = DIRECTION('',(0.,1.479114197289E-31,1.));
#1224 = DIRECTION('',(-1.,0.,0.));
#1225 = PLANE('',#1226);
#1226 = AXIS2_PLACEMENT_3D('',#1227,#1228,#1229);
#1227 = CARTESIAN_POINT('',(43.656854249492,-22.75276993473,-28.));
#1228 = DIRECTION('',(0.,3.451266460342E-31,1.));
#1229 = DIRECTION('',(1.,0.,0.));
#1230 = ADVANCED_FACE('',(#1231),#1242,.F.);
#1231 = FACE_BOUND('',#1232,.F.);
#1232 = EDGE_LOOP('',(#1233,#1239,#1240,#1241));
#1233 = ORIENTED_EDGE('',*,*,#1234,.T.);
#1234 = EDGE_CURVE('',#869,#1201,#1235,.T.);
#1235 = LINE('',#1236,#1237);
#1236 = CARTESIAN_POINT('',(50.,-32.,-44.));
#1237 = VECTOR('',#1238,1.);
#1238 = DIRECTION('',(0.,3.451266460342E-31,1.));
#1239 = ORIENTED_EDGE('',*,*,#1208,.T.);
#1240 = ORIENTED_EDGE('',*,*,#488,.F.);
#1241 = ORIENTED_EDGE('',*,*,#868,.F.);
#1242 = PLANE('',#1243);
#1243 = AXIS2_PLACEMENT_3D('',#1244,#1245,#1246);
#1244 = CARTESIAN_POINT('',(50.,-32.,-44.));
#1245 = DIRECTION('',(-0.707106781187,0.707106781187,-2.338302390987E-31
    ));
#1246 = DIRECTION('',(0.707106781187,0.707106781187,-2.338302390987E-31)
  );
#1247 = ADVANCED_FACE('',(#1248),#1259,.F.);
#1248 = FACE_BOUND('',#1249,.F.);
#1249 = EDGE_LOOP('',(#1250,#1256,#1257,#1258));
#1250 = ORIENTED_EDGE('',*,*,#1251,.T.);
#1251 = EDGE_CURVE('',#1042,#854,#1252,.T.);
#1252 = LINE('',#1253,#1254);
#1253 = CARTESIAN_POINT('',(80.,-6.,4.));
#1254 = VECTOR('',#1255,1.);
#1255 = DIRECTION('',(-2.960594732334E-16,-2.22044604925E-16,-1.));
#1256 = ORIENTED_EDGE('',*,*,#861,.T.);
#1257 = ORIENTED_EDGE('',*,*,#472,.T.);
#1258 = ORIENTED_EDGE('',*,*,#1041,.F.);
#1259 = PLANE('',#1260);
#1260 = AXIS2_PLACEMENT_3D('',#1261,#1262,#1263);
#1261 = CARTESIAN_POINT('',(80.,16.,-44.));
#1262 = DIRECTION('',(-1.,0.,0.));
#1263 = DIRECTION('',(0.,2.22044604925E-16,1.));
#1264 = ADVANCED_FACE('',(#1265,#1276),#1279,.F.);
#1265 = FACE_BOUND('',#1266,.F.);
#1266 = EDGE_LOOP('',(#1267,#1273,#1274,#1275));
#1267 = ORIENTED_EDGE('',*,*,#1268,.F.);
#1268 = EDGE_CURVE('',#530,#567,#1269,.T.);
#1269 = LINE('',#1270,#1271);
#1270 = CARTESIAN_POINT('',(14.,-185.4017250459,4.116745279024E-14));
#1271 = VECTOR('',#1272,1.);
#1272 = DIRECTION('',(0.,1.,-2.22044604925E-16));
#1273 = ORIENTED_EDGE('',*,*,#529,.F.);
#1274 = ORIENTED_EDGE('',*,*,#1268,.T.);
#1275 = ORIENTED_EDGE('',*,*,#566,.T.);
#1276 = FACE_BOUND('',#1277,.F.);
#1277 = EDGE_LOOP('',(#1278));
#1278 = ORIENTED_EDGE('',*,*,#622,.F.);
#1279 = CYLINDRICAL_SURFACE('',#1280,14.);
#1280 = AXIS2_PLACEMENT_3D('',#1281,#1282,#1283);
#1281 = CARTESIAN_POINT('',(0.,-185.4017250459,4.116745279024E-14));
#1282 = DIRECTION('',(0.,-1.,2.22044604925E-16));
#1283 = DIRECTION('',(1.,0.,0.));
#1284 = ADVANCED_FACE('',(#1285),#1296,.F.);
#1285 = FACE_BOUND('',#1286,.F.);
#1286 = EDGE_LOOP('',(#1287,#1288,#1289,#1290));
#1287 = ORIENTED_EDGE('',*,*,#779,.F.);
#1288 = ORIENTED_EDGE('',*,*,#608,.T.);
#1289 = ORIENTED_EDGE('',*,*,#704,.T.);
#1290 = ORIENTED_EDGE('',*,*,#1291,.F.);
#1291 = EDGE_CURVE('',#770,#705,#1292,.T.);
#1292 = LINE('',#1293,#1294);
#1293 = CARTESIAN_POINT('',(-20.5,10.,7.5));
#1294 = VECTOR('',#1295,1.);
#1295 = DIRECTION('',(0.,-1.,2.22044604925E-16));
#1296 = PLANE('',#1297);
#1297 = AXIS2_PLACEMENT_3D('',#1298,#1299,#1300);
#1298 = CARTESIAN_POINT('',(-20.5,10.,20.5));
#1299 = DIRECTION('',(1.,0.,0.));
#1300 = DIRECTION('',(0.,-2.22044604925E-16,-1.));
#1301 = ADVANCED_FACE('',(#1302),#1313,.F.);
#1302 = FACE_BOUND('',#1303,.F.);
#1303 = EDGE_LOOP('',(#1304,#1305,#1306,#1312));
#1304 = ORIENTED_EDGE('',*,*,#1291,.T.);
#1305 = ORIENTED_EDGE('',*,*,#712,.T.);
#1306 = ORIENTED_EDGE('',*,*,#1307,.F.);
#1307 = EDGE_CURVE('',#772,#713,#1308,.T.);
#1308 = LINE('',#1309,#1310);
#1309 = CARTESIAN_POINT('',(-50.5,10.,7.5));
#1310 = VECTOR('',#1311,1.);
#1311 = DIRECTION('',(0.,-1.,2.22044604925E-16));
#1312 = ORIENTED_EDGE('',*,*,#769,.F.);
#1313 = PLANE('',#1314);
#1314 = AXIS2_PLACEMENT_3D('',#1315,#1316,#1317);
#1315 = CARTESIAN_POINT('',(-20.5,10.,7.5));
#1316 = DIRECTION('',(0.,-2.22044604925E-16,-1.));
#1317 = DIRECTION('',(-1.,0.,0.));
#1318 = ADVANCED_FACE('',(#1319),#1325,.F.);
#1319 = FACE_BOUND('',#1320,.F.);
#1320 = EDGE_LOOP('',(#1321,#1322,#1323,#1324));
#1321 = ORIENTED_EDGE('',*,*,#1307,.T.);
#1322 = ORIENTED_EDGE('',*,*,#720,.T.);
#1323 = ORIENTED_EDGE('',*,*,#745,.F.);
#1324 = ORIENTED_EDGE('',*,*,#790,.F.);
#1325 = PLANE('',#1326);
#1326 = AXIS2_PLACEMENT_3D('',#1327,#1328,#1329);
#1327 = CARTESIAN_POINT('',(-50.5,10.,7.5));
#1328 = DIRECTION('',(1.,0.,0.));
#1329 = DIRECTION('',(0.,-2.22044604925E-16,-1.));
#1330 = ADVANCED_FACE('',(#1331),#1337,.F.);
#1331 = FACE_BOUND('',#1332,.T.);
#1332 = EDGE_LOOP('',(#1333,#1334,#1335,#1336));
#1333 = ORIENTED_EDGE('',*,*,#941,.T.);
#1334 = ORIENTED_EDGE('',*,*,#957,.T.);
#1335 = ORIENTED_EDGE('',*,*,#991,.F.);
#1336 = ORIENTED_EDGE('',*,*,#814,.F.);
#1337 = PLANE('',#1338);
#1338 = AXIS2_PLACEMENT_3D('',#1339,#1340,#1341);
#1339 = CARTESIAN_POINT('',(26.,32.,-44.));
#1340 = DIRECTION('',(0.,-1.,2.958228394579E-31));
#1341 = DIRECTION('',(-1.,-0.,0.));
#1342 = ADVANCED_FACE('',(#1343),#1349,.F.);
#1343 = FACE_BOUND('',#1344,.F.);
#1344 = EDGE_LOOP('',(#1345,#1346,#1347,#1348));
#1345 = ORIENTED_EDGE('',*,*,#1184,.T.);
#1346 = ORIENTED_EDGE('',*,*,#1200,.T.);
#1347 = ORIENTED_EDGE('',*,*,#1234,.F.);
#1348 = ORIENTED_EDGE('',*,*,#876,.F.);
#1349 = PLANE('',#1350);
#1350 = AXIS2_PLACEMENT_3D('',#1351,#1352,#1353);
#1351 = CARTESIAN_POINT('',(26.,-32.,-44.));
#1352 = DIRECTION('',(0.,1.,-3.451266460342E-31));
#1353 = DIRECTION('',(1.,0.,0.));
#1354 = ADVANCED_FACE('',(#1355,#1366,#1377),#1388,.T.);
#1355 = FACE_BOUND('',#1356,.T.);
#1356 = EDGE_LOOP('',(#1357,#1358,#1359,#1360));
#1357 = ORIENTED_EDGE('',*,*,#837,.F.);
#1358 = ORIENTED_EDGE('',*,*,#1010,.F.);
#1359 = ORIENTED_EDGE('',*,*,#1065,.F.);
#1360 = ORIENTED_EDGE('',*,*,#1361,.F.);
#1361 = EDGE_CURVE('',#838,#1058,#1362,.T.);
#1362 = LINE('',#1363,#1364);
#1363 = CARTESIAN_POINT('',(109.,6.,-44.));
#1364 = VECTOR('',#1365,1.);
#1365 = DIRECTION('',(0.,2.22044604925E-16,1.));
#1366 = FACE_BOUND('',#1367,.T.);
#1367 = EDGE_LOOP('',(#1368));
#1368 = ORIENTED_EDGE('',*,*,#1369,.T.);
#1369 = EDGE_CURVE('',#1370,#1370,#1372,.T.);
#1370 = VERTEX_POINT('',#1371);
#1371 = CARTESIAN_POINT('',(95.,6.,-31.));
#1372 = CIRCLE('',#1373,3.);
#1373 = AXIS2_PLACEMENT_3D('',#1374,#1375,#1376);
#1374 = CARTESIAN_POINT('',(92.,6.,-31.));
#1375 = DIRECTION('',(0.,-1.,2.22044604925E-16));
#1376 = DIRECTION('',(1.,0.,0.));
#1377 = FACE_BOUND('',#1378,.T.);
#1378 = EDGE_LOOP('',(#1379));
#1379 = ORIENTED_EDGE('',*,*,#1380,.T.);
#1380 = EDGE_CURVE('',#1381,#1381,#1383,.T.);
#1381 = VERTEX_POINT('',#1382);
#1382 = CARTESIAN_POINT('',(95.,6.,-9.));
#1383 = CIRCLE('',#1384,3.);
#1384 = AXIS2_PLACEMENT_3D('',#1385,#1386,#1387);
#1385 = CARTESIAN_POINT('',(92.,6.,-9.));
#1386 = DIRECTION('',(0.,-1.,2.22044604925E-16));
#1387 = DIRECTION('',(1.,0.,0.));
#1388 = PLANE('',#1389);
#1389 = AXIS2_PLACEMENT_3D('',#1390,#1391,#1392);
#1390 = CARTESIAN_POINT('',(94.5,6.,-20.));
#1391 = DIRECTION('',(0.,1.,-4.930380657631E-31));
#1392 = DIRECTION('',(0.,4.930380657631E-31,1.));
#1393 = ADVANCED_FACE('',(#1394,#1405,#1416),#1427,.F.);
#1394 = FACE_BOUND('',#1395,.F.);
#1395 = EDGE_LOOP('',(#1396,#1397,#1398,#1399));
#1396 = ORIENTED_EDGE('',*,*,#853,.F.);
#1397 = ORIENTED_EDGE('',*,*,#1251,.F.);
#1398 = ORIENTED_EDGE('',*,*,#1049,.F.);
#1399 = ORIENTED_EDGE('',*,*,#1400,.F.);
#1400 = EDGE_CURVE('',#846,#1050,#1401,.T.);
#1401 = LINE('',#1402,#1403);
#1402 = CARTESIAN_POINT('',(109.,-6.,-44.));
#1403 = VECTOR('',#1404,1.);
#1404 = DIRECTION('',(0.,2.22044604925E-16,1.));
#1405 = FACE_BOUND('',#1406,.F.);
#1406 = EDGE_LOOP('',(#1407));
#1407 = ORIENTED_EDGE('',*,*,#1408,.T.);
#1408 = EDGE_CURVE('',#1409,#1409,#1411,.T.);
#1409 = VERTEX_POINT('',#1410);
#1410 = CARTESIAN_POINT('',(95.,-6.,-31.));
#1411 = CIRCLE('',#1412,3.);
#1412 = AXIS2_PLACEMENT_3D('',#1413,#1414,#1415);
#1413 = CARTESIAN_POINT('',(92.,-6.,-31.));
#1414 = DIRECTION('',(0.,-1.,2.22044604925E-16));
#1415 = DIRECTION('',(1.,0.,0.));
#1416 = FACE_BOUND('',#1417,.F.);
#1417 = EDGE_LOOP('',(#1418));
#1418 = ORIENTED_EDGE('',*,*,#1419,.T.);
#1419 = EDGE_CURVE('',#1420,#1420,#1422,.T.);
#1420 = VERTEX_POINT('',#1421);
#1421 = CARTESIAN_POINT('',(95.,-6.,-9.));
#1422 = CIRCLE('',#1423,3.);
#1423 = AXIS2_PLACEMENT_3D('',#1424,#1425,#1426);
#1424 = CARTESIAN_POINT('',(92.,-6.,-9.));
#1425 = DIRECTION('',(0.,-1.,2.22044604925E-16));
#1426 = DIRECTION('',(1.,0.,0.));
#1427 = PLANE('',#1428);
#1428 = AXIS2_PLACEMENT_3D('',#1429,#1430,#1431);
#1429 = CARTESIAN_POINT('',(94.5,-6.,-20.));
#1430 = DIRECTION('',(0.,1.,-4.930380657631E-31));
#1431 = DIRECTION('',(0.,4.930380657631E-31,1.));
#1432 = ADVANCED_FACE('',(#1433),#1439,.F.);
#1433 = FACE_BOUND('',#1434,.F.);
#1434 = EDGE_LOOP('',(#1435,#1436,#1437,#1438));
#1435 = ORIENTED_EDGE('',*,*,#845,.T.);
#1436 = ORIENTED_EDGE('',*,*,#1400,.T.);
#1437 = ORIENTED_EDGE('',*,*,#1057,.F.);
#1438 = ORIENTED_EDGE('',*,*,#1361,.F.);
#1439 = PLANE('',#1440);
#1440 = AXIS2_PLACEMENT_3D('',#1441,#1442,#1443);
#1441 = CARTESIAN_POINT('',(109.,6.,-44.));
#1442 = DIRECTION('',(-1.,0.,0.));
#1443 = DIRECTION('',(0.,2.22044604925E-16,1.));
#1444 = ADVANCED_FACE('',(#1445),#1456,.F.);
#1445 = FACE_BOUND('',#1446,.F.);
#1446 = EDGE_LOOP('',(#1447,#1448,#1454,#1455));
#1447 = ORIENTED_EDGE('',*,*,#1217,.F.);
#1448 = ORIENTED_EDGE('',*,*,#1449,.T.);
#1449 = EDGE_CURVE('',#1218,#894,#1450,.T.);
#1450 = LINE('',#1451,#1452);
#1451 = CARTESIAN_POINT('',(35.,-24.,-28.));
#1452 = VECTOR('',#1453,1.);
#1453 = DIRECTION('',(0.,-1.479114197289E-31,-1.));
#1454 = ORIENTED_EDGE('',*,*,#893,.T.);
#1455 = ORIENTED_EDGE('',*,*,#1449,.F.);
#1456 = CYLINDRICAL_SURFACE('',#1457,3.);
#1457 = AXIS2_PLACEMENT_3D('',#1458,#1459,#1460);
#1458 = CARTESIAN_POINT('',(38.,-24.,-28.));
#1459 = DIRECTION('',(0.,1.479114197289E-31,1.));
#1460 = DIRECTION('',(-1.,0.,0.));
#1461 = ADVANCED_FACE('',(#1462),#1481,.F.);
#1462 = FACE_BOUND('',#1463,.F.);
#1463 = EDGE_LOOP('',(#1464,#1473,#1479,#1480));
#1464 = ORIENTED_EDGE('',*,*,#1465,.F.);
#1465 = EDGE_CURVE('',#1466,#1466,#1468,.T.);
#1466 = VERTEX_POINT('',#1467);
#1467 = CARTESIAN_POINT('',(32.,-1.577721810442E-30,-17.));
#1468 = CIRCLE('',#1469,6.);
#1469 = AXIS2_PLACEMENT_3D('',#1470,#1471,#1472);
#1470 = CARTESIAN_POINT('',(38.,0.,-17.));
#1471 = DIRECTION('',(0.,4.930380657631E-32,1.));
#1472 = DIRECTION('',(-1.,0.,0.));
#1473 = ORIENTED_EDGE('',*,*,#1474,.T.);
#1474 = EDGE_CURVE('',#1466,#905,#1475,.T.);
#1475 = LINE('',#1476,#1477);
#1476 = CARTESIAN_POINT('',(32.,-1.577721810442E-30,-17.));
#1477 = VECTOR('',#1478,1.);
#1478 = DIRECTION('',(0.,-4.930380657631E-32,-1.));
#1479 = ORIENTED_EDGE('',*,*,#904,.T.);
#1480 = ORIENTED_EDGE('',*,*,#1474,.F.);
#1481 = CYLINDRICAL_SURFACE('',#1482,6.);
#1482 = AXIS2_PLACEMENT_3D('',#1483,#1484,#1485);
#1483 = CARTESIAN_POINT('',(38.,-1.577721810442E-30,-17.));
#1484 = DIRECTION('',(0.,4.930380657631E-32,1.));
#1485 = DIRECTION('',(-1.,-0.,0.));
#1486 = ADVANCED_FACE('',(#1487),#1498,.F.);
#1487 = FACE_BOUND('',#1488,.T.);
#1488 = EDGE_LOOP('',(#1489,#1490,#1496,#1497));
#1489 = ORIENTED_EDGE('',*,*,#974,.F.);
#1490 = ORIENTED_EDGE('',*,*,#1491,.T.);
#1491 = EDGE_CURVE('',#975,#916,#1492,.T.);
#1492 = LINE('',#1493,#1494);
#1493 = CARTESIAN_POINT('',(35.,24.,-28.));
#1494 = VECTOR('',#1495,1.);
#1495 = DIRECTION('',(0.,-9.860761315263E-32,-1.));
#1496 = ORIENTED_EDGE('',*,*,#915,.F.);
#1497 = ORIENTED_EDGE('',*,*,#1491,.F.);
#1498 = CYLINDRICAL_SURFACE('',#1499,3.);
#1499 = AXIS2_PLACEMENT_3D('',#1500,#1501,#1502);
#1500 = CARTESIAN_POINT('',(38.,24.,-28.));
#1501 = DIRECTION('',(0.,9.860761315263E-32,1.));
#1502 = DIRECTION('',(-1.,0.,0.));
#1503 = ADVANCED_FACE('',(#1504),#1525,.F.);
#1504 = FACE_BOUND('',#1505,.F.);
#1505 = EDGE_LOOP('',(#1506,#1507,#1515,#1522,#1523,#1524));
#1506 = ORIENTED_EDGE('',*,*,#1134,.F.);
#1507 = ORIENTED_EDGE('',*,*,#1508,.T.);
#1508 = EDGE_CURVE('',#1135,#1509,#1511,.T.);
#1509 = VERTEX_POINT('',#1510);
#1510 = CARTESIAN_POINT('',(25.5,-3.330669073875E-15,-17.));
#1511 = LINE('',#1512,#1513);
#1512 = CARTESIAN_POINT('',(25.5,-3.330669073875E-15,-13.));
#1513 = VECTOR('',#1514,1.);
#1514 = DIRECTION('',(0.,-9.860761315263E-32,-1.));
#1515 = ORIENTED_EDGE('',*,*,#1516,.T.);
#1516 = EDGE_CURVE('',#1509,#1509,#1517,.T.);
#1517 = CIRCLE('',#1518,12.5);
#1518 = AXIS2_PLACEMENT_3D('',#1519,#1520,#1521);
#1519 = CARTESIAN_POINT('',(38.,-3.552713678801E-15,-17.));
#1520 = DIRECTION('',(0.,9.860761315263E-32,1.));
#1521 = DIRECTION('',(-1.,0.,0.));
#1522 = ORIENTED_EDGE('',*,*,#1508,.F.);
#1523 = ORIENTED_EDGE('',*,*,#1151,.F.);
#1524 = ORIENTED_EDGE('',*,*,#1107,.F.);
#1525 = CYLINDRICAL_SURFACE('',#1526,12.5);
#1526 = AXIS2_PLACEMENT_3D('',#1527,#1528,#1529);
#1527 = CARTESIAN_POINT('',(38.,-3.330669073875E-15,-13.));
#1528 = DIRECTION('',(0.,9.860761315263E-32,1.));
#1529 = DIRECTION('',(-1.,0.,0.));
#1530 = ADVANCED_FACE('',(#1531),#1542,.F.);
#1531 = FACE_BOUND('',#1532,.F.);
#1532 = EDGE_LOOP('',(#1533,#1534,#1540,#1541));
#1533 = ORIENTED_EDGE('',*,*,#1408,.F.);
#1534 = ORIENTED_EDGE('',*,*,#1535,.T.);
#1535 = EDGE_CURVE('',#1409,#1370,#1536,.T.);
#1536 = LINE('',#1537,#1538);
#1537 = CARTESIAN_POINT('',(95.,-6.,-31.));
#1538 = VECTOR('',#1539,1.);
#1539 = DIRECTION('',(0.,1.,-2.22044604925E-16));
#1540 = ORIENTED_EDGE('',*,*,#1369,.T.);
#1541 = ORIENTED_EDGE('',*,*,#1535,.F.);
#1542 = CYLINDRICAL_SURFACE('',#1543,3.);
#1543 = AXIS2_PLACEMENT_3D('',#1544,#1545,#1546);
#1544 = CARTESIAN_POINT('',(92.,-6.,-31.));
#1545 = DIRECTION('',(0.,-1.,2.22044604925E-16));
#1546 = DIRECTION('',(1.,0.,0.));
#1547 = ADVANCED_FACE('',(#1548),#1559,.F.);
#1548 = FACE_BOUND('',#1549,.F.);
#1549 = EDGE_LOOP('',(#1550,#1551,#1557,#1558));
#1550 = ORIENTED_EDGE('',*,*,#1419,.F.);
#1551 = ORIENTED_EDGE('',*,*,#1552,.T.);
#1552 = EDGE_CURVE('',#1420,#1381,#1553,.T.);
#1553 = LINE('',#1554,#1555);
#1554 = CARTESIAN_POINT('',(95.,-6.,-9.));
#1555 = VECTOR('',#1556,1.);
#1556 = DIRECTION('',(0.,1.,-2.22044604925E-16));
#1557 = ORIENTED_EDGE('',*,*,#1380,.T.);
#1558 = ORIENTED_EDGE('',*,*,#1552,.F.);
#1559 = CYLINDRICAL_SURFACE('',#1560,3.);
#1560 = AXIS2_PLACEMENT_3D('',#1561,#1562,#1563);
#1561 = CARTESIAN_POINT('',(92.,-6.,-9.));
#1562 = DIRECTION('',(0.,-1.,2.22044604925E-16));
#1563 = DIRECTION('',(1.,0.,0.));
#1564 = ADVANCED_FACE('',(#1565,#1568),#1571,.T.);
#1565 = FACE_BOUND('',#1566,.T.);
#1566 = EDGE_LOOP('',(#1567));
#1567 = ORIENTED_EDGE('',*,*,#1516,.T.);
#1568 = FACE_BOUND('',#1569,.T.);
#1569 = EDGE_LOOP('',(#1570));
#1570 = ORIENTED_EDGE('',*,*,#1465,.F.);
#1571 = PLANE('',#1572);
#1572 = AXIS2_PLACEMENT_3D('',#1573,#1574,#1575);
#1573 = CARTESIAN_POINT('',(38.,-3.996802888651E-15,-17.));
#1574 = DIRECTION('',(0.,9.860761315263E-32,1.));
#1575 = DIRECTION('',(1.,0.,0.));
#1576 = ( GEOMETRIC_REPRESENTATION_CONTEXT(3) 
GLOBAL_UNCERTAINTY_ASSIGNED_CONTEXT((#1580)) 
GLOBAL_UNIT_ASSIGNED_CONTEXT((#1577,#1578,#1579)) REPRESENTATION_CONTEXT
('Context #1','3D Context with UNIT and UNCERTAINTY') );
#1577 = ( LENGTH_UNIT() NAMED_UNIT(*) SI_UNIT(.MILLI.,.METRE.) );
#1578 = ( NAMED_UNIT(*) PLANE_ANGLE_UNIT() SI_UNIT($,.RADIAN.) );
#1579 = ( NAMED_UNIT(*) SI_UNIT($,.STERADIAN.) SOLID_ANGLE_UNIT() );
#1580 = UNCERTAINTY_MEASURE_WITH_UNIT(LENGTH_MEASURE(2.E-06),#1577,
  'distance_accuracy_value','confusion accuracy');
#1581 = PRODUCT_RELATED_PRODUCT_CATEGORY('part',$,(#7));
#1582 = MECHANICAL_DESIGN_GEOMETRIC_PRESENTATION_REPRESENTATION('',(
    #1583),#1576);
#1583 = STYLED_ITEM('color',(#1584),#15);
#1584 = PRESENTATION_STYLE_ASSIGNMENT((#1585,#1593));
#1585 = SURFACE_STYLE_USAGE(.BOTH.,#1586);
#1586 = SURFACE_SIDE_STYLE('',(#1587,#1591));
#1587 = SURFACE_STYLE_FILL_AREA(#1588);
#1588 = FILL_AREA_STYLE('',(#1589));
#1589 = FILL_AREA_STYLE_COLOUR('',#1590);
#1590 = COLOUR_RGB('',1.,0.670000024756,0.);
#1591 = SURFACE_STYLE_RENDERING_WITH_PROPERTIES(.NORMAL_SHADING.,#1590,(
    #1592));
#1592 = SURFACE_STYLE_TRANSPARENT(0.25);
#1593 = CURVE_STYLE('',#1594,POSITIVE_LENGTH_MEASURE(0.1),#1595);
#1594 = DRAUGHTING_PRE_DEFINED_CURVE_FONT('continuous');
#1595 = COLOUR_RGB('',9.803921802644E-02,9.803921802644E-02,
  9.803921802644E-02);
ENDSEC;
END-ISO-10303-21;
